<svg width="162" height="34" viewBox="0 0 162 34" fill="none" xmlns="http://www.w3.org/2000/svg">
<path d="M22 9.31418V18.616C22 22.9248 19.3401 26.7864 15.3142 28.3221L1 33.7826V11.9625C1 7.65356 3.66007 3.79191 7.6861 2.25624L13.6012 0V19.5779L9.39875 21.1801V6.29801L9.31076 6.33156C6.8333 7.27608 5.19627 9.65216 5.19627 12.3036V27.4846L13.684 24.2471C16.1609 23.3023 17.7975 20.9265 17.7975 18.2754V10.9164L22 9.31418Z" fill="white"/>
<path d="M159.796 13.9338V23.7592H157.973L157.742 22.5118C156.994 23.4329 155.977 23.8743 154.71 23.8743C153.559 23.8743 152.619 23.5289 151.909 22.7997C151.179 22.0896 150.834 20.9382 150.834 19.3454V13.9338H152.907V19.1344C152.907 20.0939 153.098 20.8231 153.482 21.322C153.866 21.821 154.423 22.0704 155.19 22.0704C155.977 22.0704 156.591 21.7826 157.052 21.2069C157.493 20.6312 157.723 19.8252 157.723 18.8081V13.9338H159.796Z" fill="white"/>
<path d="M140.274 16.2176C140.677 15.45 141.233 14.8743 141.962 14.4521C142.692 14.0299 143.517 13.8188 144.457 13.8188C145.397 13.8188 146.223 14.0107 146.952 14.3945C147.681 14.7784 148.237 15.3349 148.66 16.0257C149.082 16.7357 149.293 17.5609 149.312 18.5012C149.312 18.7699 149.293 19.0194 149.255 19.288H141.847V19.4032C141.886 20.2667 142.154 20.9384 142.653 21.4373C143.133 21.9363 143.785 22.1857 144.591 22.1857C145.225 22.1857 145.762 22.0514 146.203 21.7444C146.626 21.4373 146.913 21.0151 147.067 20.4586H149.139C148.948 21.4565 148.468 22.2817 147.681 22.9149C146.894 23.5674 145.915 23.8745 144.745 23.8745C143.709 23.8745 142.826 23.6826 142.058 23.2604C141.291 22.8382 140.715 22.2625 140.293 21.4949C139.871 20.7465 139.679 19.8637 139.679 18.8658C139.679 17.868 139.871 16.9852 140.274 16.2176ZM147.201 17.772C147.105 17.062 146.817 16.5055 146.338 16.1025C145.858 15.6995 145.263 15.4884 144.534 15.4884C143.843 15.4884 143.267 15.6995 142.768 16.1217C142.269 16.5438 142.001 17.0812 141.924 17.772H147.201Z" fill="white"/>
<path d="M137.877 10.3646C138.108 10.5949 138.242 10.9019 138.242 11.2474C138.242 11.612 138.108 11.919 137.877 12.1493C137.628 12.3796 137.321 12.4947 136.976 12.4947C136.611 12.4947 136.304 12.3796 136.074 12.1493C135.824 11.919 135.709 11.612 135.709 11.2474C135.709 10.9019 135.824 10.5949 136.074 10.3646C136.304 10.1343 136.611 10 136.976 10C137.321 10 137.628 10.1343 137.877 10.3646ZM135.939 13.934H138.012V23.7593H135.939V13.934Z" fill="white"/>
<path d="M131.835 10.3262H133.907V23.7592H131.835V10.3262Z" fill="white"/>
<path d="M129.793 13.9338V23.7592H127.97L127.739 22.5118C126.991 23.4329 125.974 23.8743 124.707 23.8743C123.556 23.8743 122.616 23.5289 121.906 22.7997C121.176 22.0896 120.831 20.9382 120.831 19.3454V13.9338H122.904V19.1344C122.904 20.0939 123.095 20.8231 123.479 21.322C123.863 21.821 124.42 22.0704 125.187 22.0704C125.974 22.0704 126.588 21.7826 127.049 21.2069C127.49 20.6312 127.72 19.8252 127.72 18.8081V13.9338H129.793Z" fill="white"/>
<path d="M119.855 21.9554V23.7593H118.761C118.109 23.7593 117.648 23.625 117.38 23.3563C117.092 23.0877 116.958 22.7039 116.958 22.1857C116.209 23.3179 115.135 23.8745 113.714 23.8745C112.601 23.8745 111.719 23.625 111.066 23.1068C110.395 22.6079 110.068 21.8979 110.068 20.9959C110.068 19.9981 110.414 19.2113 111.143 18.6739C111.853 18.1366 112.889 17.8488 114.271 17.8488H116.747V17.2539C116.747 16.7166 116.555 16.2752 116.171 15.9681C115.787 15.6611 115.25 15.4884 114.578 15.4884C113.964 15.4884 113.465 15.6227 113.081 15.8914C112.697 16.16 112.467 16.5055 112.39 16.9276H110.356C110.452 15.9489 110.894 15.1813 111.661 14.644C112.429 14.1067 113.427 13.8188 114.674 13.8188C115.979 13.8188 116.996 14.1259 117.725 14.74C118.435 15.3541 118.8 16.2368 118.8 17.3882V21.2646C118.8 21.7252 119.011 21.9554 119.452 21.9554H119.855ZM116.747 19.384H114.175C113.523 19.384 113.043 19.5183 112.697 19.7678C112.352 20.0172 112.179 20.3819 112.179 20.8616C112.179 21.2838 112.333 21.6292 112.659 21.8787C112.985 22.1473 113.427 22.2625 114.002 22.2625C114.847 22.2625 115.518 22.0322 115.998 21.5716C116.478 21.1111 116.727 20.497 116.747 19.7294V19.384Z" fill="white"/>
<path d="M99.7384 16.2176C100.141 15.45 100.698 14.8743 101.427 14.4521C102.156 14.0299 102.982 13.8188 103.922 13.8188C104.862 13.8188 105.687 14.0107 106.417 14.3945C107.146 14.7784 107.702 15.3349 108.125 16.0257C108.547 16.7357 108.758 17.5609 108.777 18.5012C108.777 18.7699 108.758 19.0194 108.719 19.288H101.312V19.4032C101.35 20.2667 101.619 20.9384 102.118 21.4373C102.598 21.9363 103.25 22.1857 104.056 22.1857C104.689 22.1857 105.227 22.0514 105.668 21.7444C106.09 21.4373 106.378 21.0151 106.532 20.4586H108.604C108.412 21.4565 107.933 22.2817 107.146 22.9149C106.359 23.5674 105.38 23.8745 104.21 23.8745C103.173 23.8745 102.291 23.6826 101.523 23.2604C100.756 22.8382 100.18 22.2625 99.7576 21.4949C99.3355 20.7465 99.1436 19.8637 99.1436 18.8658C99.1436 17.868 99.3354 16.9852 99.7384 16.2176ZM106.666 17.772C106.57 17.062 106.282 16.5055 105.803 16.1025C105.323 15.6995 104.728 15.4884 103.999 15.4884C103.308 15.4884 102.732 15.6995 102.233 16.1217C101.734 16.5438 101.466 17.0812 101.389 17.772H106.666Z" fill="white"/>
<path d="M92.507 10.3262C93.9655 10.3262 95.1169 10.6332 95.9229 11.2473C96.7289 11.8614 97.1511 12.7249 97.1511 13.8188C97.1511 14.6248 96.9208 15.2964 96.4986 15.8145C96.0764 16.3327 95.4623 16.6781 94.6563 16.8508C96.6521 17.1962 97.6692 18.2517 97.6692 20.0172C97.6692 21.1878 97.2278 22.1089 96.3643 22.7613C95.5007 23.433 94.2725 23.7592 92.6798 23.7592H87.5752V10.3262H92.507ZM89.7821 16.0256H92.5646C93.313 16.0256 93.8887 15.8529 94.3109 15.5075C94.7331 15.1621 94.9442 14.7015 94.9442 14.0874C94.9442 13.4925 94.7331 13.032 94.3109 12.6866C93.8887 12.3411 93.313 12.1684 92.5646 12.1684H89.7821V16.0256ZM89.7821 21.8978H92.6989C93.5625 21.8978 94.2342 21.7251 94.6947 21.3797C95.1553 21.0342 95.4048 20.5353 95.4048 19.902C95.4048 19.2496 95.1553 18.7506 94.6947 18.386C94.215 18.0406 93.5433 17.8487 92.6989 17.8487H89.7821V21.8978Z" fill="white"/>
<path d="M79.456 14.8935C80.1852 15.6227 80.569 16.7741 80.569 18.3477V23.7593H78.4773V18.4628C78.4773 17.5417 78.2662 16.8317 77.8824 16.3327C77.4794 15.853 76.9037 15.6035 76.1361 15.6035C75.311 15.6035 74.6585 15.8914 74.1979 16.4671C73.7374 17.0428 73.5071 17.8104 73.5071 18.8083V23.7593H71.4346V13.934H73.2384L73.4687 15.2197C74.1979 14.2986 75.2534 13.8188 76.6159 13.8188C77.7673 13.8188 78.7268 14.1835 79.456 14.8935Z" fill="white"/>
<path d="M69.2691 10.3646C69.4993 10.5949 69.6337 10.9019 69.6337 11.2474C69.6337 11.612 69.4993 11.919 69.2691 12.1493C69.0196 12.3796 68.7126 12.4947 68.3671 12.4947C68.0025 12.4947 67.6955 12.3796 67.4652 12.1493C67.2157 11.919 67.1006 11.612 67.1006 11.2474C67.1006 10.9019 67.2157 10.5949 67.4652 10.3646C67.6955 10.1343 68.0025 10 68.3671 10C68.7126 10 69.0196 10.1343 69.2691 10.3646ZM67.3309 13.934H69.4034V23.7593H67.3309V13.934Z" fill="white"/>
<path d="M61.536 15.7569H59.8281V13.9339H61.536V11.1897H63.6278V13.9339H65.9881V15.7569H63.6278V20.8807C63.6278 21.2645 63.7045 21.5523 63.858 21.7059C64.0116 21.8594 64.261 21.9361 64.6448 21.9361H66.2184V23.7592H64.2227C63.2823 23.7592 62.5915 23.5481 62.1693 23.1067C61.7471 22.6846 61.536 22.0129 61.536 21.0918V15.7569Z" fill="white"/>
<path d="M52.6393 20.5161C52.6777 21.0342 52.908 21.4564 53.3494 21.7826C53.7907 22.1089 54.3664 22.2624 55.0765 22.2624C55.6905 22.2624 56.2087 22.1472 56.5925 21.917C56.9763 21.6867 57.1874 21.3605 57.1874 20.9575C57.1874 20.6312 57.0914 20.3818 56.9187 20.209C56.7268 20.0555 56.4965 19.9404 56.1895 19.8636C55.8824 19.7869 55.4219 19.7101 54.8078 19.6333C53.9442 19.5374 53.2342 19.4031 52.6777 19.2304C52.1212 19.0576 51.6798 18.789 51.3344 18.4052C50.989 18.0214 50.8355 17.5224 50.8355 16.87C50.8355 16.2751 50.989 15.7378 51.3344 15.2772C51.6798 14.8166 52.1404 14.452 52.7353 14.1834C53.3302 13.9339 54.0018 13.7996 54.7694 13.7996C55.9976 13.7996 57.0147 14.0874 57.7823 14.6247C58.5499 15.1812 58.9721 15.9489 59.0488 16.9467H57.0339C56.9763 16.5054 56.746 16.1408 56.3622 15.8529C55.9592 15.565 55.4603 15.4115 54.8654 15.4115C54.2513 15.4115 53.7715 15.5267 53.4069 15.7569C53.0231 15.9872 52.8504 16.3135 52.8504 16.6973C52.8504 17.0043 52.9272 17.2154 53.1191 17.3689C53.311 17.5224 53.5413 17.6184 53.8291 17.676C54.0978 17.7335 54.5583 17.7911 55.1916 17.8679C56.036 17.9638 56.746 18.0981 57.3217 18.29C57.8974 18.4819 58.358 18.7698 58.7034 19.1728C59.0488 19.5758 59.2215 20.1131 59.2215 20.8039C59.2215 21.418 59.0296 21.9745 58.6842 22.4351C58.3196 22.8957 57.8206 23.2603 57.2066 23.5097C56.5733 23.7592 55.8633 23.8744 55.0957 23.8744C53.7715 23.8744 52.6969 23.5865 51.8909 22.9916C51.0849 22.3967 50.6627 21.5715 50.6436 20.5161H52.6393Z" fill="white"/>
<path d="M48.9471 13.9338V23.7592H47.1241L46.8938 22.5118C46.1454 23.4329 45.1283 23.8743 43.8617 23.8743C42.7103 23.8743 41.77 23.5289 41.06 22.7997C40.3308 22.0896 39.9854 20.9382 39.9854 19.3454V13.9338H42.0579V19.1344C42.0579 20.0939 42.2498 20.8231 42.6336 21.322C43.0174 21.821 43.5739 22.0704 44.3415 22.0704C45.1283 22.0704 45.7424 21.7826 46.2029 21.2069C46.6443 20.6312 46.8746 19.8252 46.8746 18.8081V13.9338H48.9471Z" fill="white"/>
<path d="M37.8917 10.3262V20.4202C37.8917 21.4948 37.5847 22.32 37.009 22.8957C36.4333 23.4714 35.6081 23.7592 34.5335 23.7592H32.4609V21.7827H34.0345C34.6102 21.7827 35.0132 21.6483 35.2819 21.3797C35.5505 21.111 35.6849 20.6888 35.6849 20.0939V10.3262H37.8917Z" fill="white"/>
</svg>
