<svg width="144" height="96" viewBox="0 0 144 96" fill="none" xmlns="http://www.w3.org/2000/svg">
<path d="M58.0986 37.5063C61.8224 37.5064 63.7548 37.9448 65.083 39.4028C65.9496 40.3825 66.4736 41.4023 66.4736 44.3618V52.5708C66.4736 55.5305 65.9501 56.5505 65.083 57.5298C63.7543 58.9872 61.8223 59.4253 58.0977 59.4253H47.4072C43.6825 59.4253 41.7473 58.9868 40.4199 57.5298C39.5546 56.5514 39.0303 55.5303 39.0303 52.5708V44.3618C39.0303 41.4028 39.5546 40.3829 40.4199 39.4028C41.7473 37.9441 43.683 37.5063 47.4072 37.5063H58.0986ZM30.2529 53.7583V37.8618H36.5137V59.1548H25.9043L13.2617 42.9868V59.1548H7V37.8618H17.8291L30.2529 53.7583ZM75.5732 59.1548H69.0303V37.8618H75.5732V59.1548ZM83.6064 47.8218L96.7539 59.1548H87.5117L75.5732 48.0493L86.626 37.8618H95.2637L83.6064 47.8218ZM104.506 59.1548H97.9609V37.8618H104.506V59.1548ZM137.042 59.1548H129.452L127.517 55.4448H114.855L112.942 59.1548H105.714L117.312 37.8608H125.444L137.042 59.1548ZM47.6689 42.9038C46.2391 42.9038 45.7351 42.9865 45.3936 43.2993C45.0712 43.5922 44.9307 43.9662 44.9307 45.2163V51.7163C44.9307 52.9666 45.0708 53.3426 45.3936 53.6343C45.7351 53.9461 46.2393 54.0298 47.6689 54.0298H57.835C59.2644 54.0298 59.769 53.946 60.1113 53.6343C60.4329 53.3426 60.5752 52.9671 60.5752 51.7163V45.2163C60.5752 43.9657 60.4329 43.5922 60.1113 43.2993C59.769 42.9866 59.2646 42.9038 57.835 42.9038H47.6689ZM117.129 50.8198H125.265L121.195 43.1108L117.129 50.8198Z" fill="#AEAEAE"/>
</svg>
