<svg width="144" height="96" viewBox="0 0 144 96" fill="none" xmlns="http://www.w3.org/2000/svg">
<path d="M49.6465 44.014C49.6465 40.7723 49.6465 37.6119 49.6465 34.393C51.3878 34.393 53.1022 34.393 54.8799 34.393C54.8923 34.6093 54.9174 34.8456 54.9176 35.0818C54.9202 37.9957 54.9129 40.9096 54.9213 43.8234C54.9265 45.6645 55.7806 46.7975 57.3563 47.0944C59.2699 47.455 61.2045 45.8508 61.2055 43.8991C61.2072 40.7424 61.206 37.5856 61.206 34.3818C62.9739 34.3818 64.6887 34.3818 66.409 34.3818C66.4332 34.4929 66.4648 34.5701 66.4648 34.6473C66.4671 40.1996 66.4669 45.752 66.4669 51.3639C64.7336 51.3639 63.0204 51.3639 61.2351 51.3639C61.2351 50.5402 61.2351 49.7041 61.2351 48.9994C60.6079 49.5523 59.9974 50.2015 59.2827 50.7018C55.8596 53.0977 50.9662 51.1567 49.9991 47.0119C49.7779 46.0639 49.7587 45.0688 49.6465 44.014Z" fill="#AEAEAE"/>
<path d="M99.81 50.2775C99.81 50.6835 99.81 51.009 99.81 51.3791C98.0709 51.3791 96.3808 51.3791 94.6096 51.3791C94.6096 50.5368 94.6096 49.7009 94.6096 48.6994C93.6114 49.9094 92.6983 50.9592 91.3255 51.4305C87.8309 52.6303 84.0519 50.4519 83.335 46.7789C83.1368 45.7637 83.0412 44.7148 83.0277 43.6797C82.9883 40.6552 83.0138 37.6299 83.016 34.6049C83.0161 34.553 83.0435 34.5011 83.0754 34.388C84.7757 34.388 86.4944 34.388 88.28 34.388C88.28 37.2613 88.2563 40.1621 88.2954 43.062C88.3063 43.8665 88.407 44.6977 88.6388 45.4646C88.965 46.5441 89.8809 47.0095 90.939 47.1349C92.0445 47.2658 92.9469 46.8323 93.7137 46.0261C94.4477 45.2544 94.6201 44.3639 94.604 43.3312C94.5577 40.3673 94.5877 37.4022 94.5877 34.386C96.3361 34.386 98.0249 34.386 99.81 34.386C99.81 39.659 99.81 44.928 99.81 50.2775Z" fill="#AEAEAE"/>
<path d="M44.8042 36.641C48.0189 39.9801 48.0107 44.9715 45.7612 48.0389C44.2861 50.0501 42.242 51.187 39.812 51.5936C36.7939 52.0987 34.1349 51.2102 31.8736 49.2173C30.5055 48.0116 29.6997 46.4166 29.4333 44.6081C28.9669 41.441 29.6132 38.5374 32.1257 36.4148C35.751 33.352 40.0567 33.218 43.9935 35.9946C44.2596 36.1823 44.5059 36.3979 44.8042 36.641ZM34.8273 40.7241C34.6645 41.3802 34.4212 42.0282 34.3531 42.694C34.0845 45.3204 36.4744 47.5393 38.9791 47.0339C40.7483 46.6768 42.0843 45.257 42.2146 43.5954C42.4006 41.2222 41.4546 39.5292 39.5668 38.8567C37.8396 38.2414 36.1434 38.8851 34.8273 40.7241Z" fill="#AEAEAE"/>
<path d="M121.601 49.3013C121.601 50.038 121.601 50.6924 121.601 51.3843C119.879 51.3843 118.215 51.3843 116.488 51.3843C116.488 45.7411 116.488 40.0967 116.488 34.3931C118.154 34.3931 119.837 34.3931 121.568 34.3931C121.568 35.2598 121.568 36.1298 121.568 36.8974C122.353 36.2032 123.072 35.3392 123.984 34.8023C127.592 32.6768 132.125 34.9472 132.978 39.2383C133.042 39.5591 133.112 39.8865 133.113 40.211C133.122 43.918 133.119 47.625 133.119 51.3776C131.4 51.3776 129.687 51.3776 127.893 51.3776C127.893 50.8619 127.893 50.3743 127.893 49.8868C127.894 47.1928 127.9 44.4988 127.891 41.8049C127.885 39.8598 126.699 38.5771 124.932 38.5761C123.227 38.575 121.611 40.1678 121.604 41.8795C121.594 44.326 121.601 46.7726 121.601 49.3013Z" fill="#AEAEAE"/>
<path d="M32.8122 28.5063L24.0647 42.2543L24.0557 47.2624H18.7223L18.7129 42.2543L10 28.5064L16.0347 28.5298C17.8239 31.4853 19.5372 34.4973 21.4003 37.4067C23.212 34.4716 26.8123 28.5274 26.8123 28.5274L32.8122 28.5063Z" fill="#AEAEAE"/>
<path d="M79.3214 51.2771C77.7171 51.7077 76.1616 51.7357 74.6162 51.3936C72.5961 50.9465 71.4476 49.4377 71.4296 47.2407C71.4086 44.6855 71.4248 42.13 71.4249 39.5746C71.4249 39.3073 71.4249 39.04 71.4249 38.7089C70.5964 38.7089 69.8393 38.7089 69.0391 38.7089C69.0391 37.2534 69.0391 35.8616 69.0391 34.3786C69.7942 34.3786 70.5733 34.3786 71.3968 34.3786C71.3968 32.895 71.3968 31.5006 71.3968 30.05C73.1297 30.05 74.8183 30.05 76.5938 30.05C76.5938 31.4304 76.5938 32.8404 76.5938 34.3126C77.8209 34.3126 78.9633 34.3126 80.1599 34.3126C80.1599 35.7895 80.1599 37.2034 80.1599 38.6999C79.009 38.6999 77.8417 38.6999 76.6089 38.6999C76.6089 41.0256 76.5708 43.271 76.6246 45.5141C76.6523 46.6692 77.4405 47.1733 78.6909 46.9654C79.2012 46.8806 79.7045 46.7533 80.3183 46.6225C80.3183 47.989 80.3654 49.2972 80.2763 50.5962C80.2596 50.8398 79.6986 51.0461 79.3214 51.2771Z" fill="#AEAEAE"/>
<path d="M108.333 36.7604C108.333 41.6761 108.333 46.5095 108.333 51.3849C106.559 51.3849 104.865 51.3849 103.1 51.3849C103.1 45.7344 103.1 40.0685 103.1 34.3665C104.853 34.3665 106.543 34.3665 108.333 34.3665C108.333 35.1548 108.333 35.9165 108.333 36.7604Z" fill="#AEAEAE"/>
<path d="M127.311 65.3035C127.311 65.9023 127.311 66.4207 127.311 67.0043C126.902 67.0043 126.538 67.0043 126.115 67.0043C126.115 63.8989 126.115 60.7826 126.115 57.6093C126.477 57.6093 126.865 57.6093 127.303 57.6093C127.303 58.9939 127.303 60.361 127.303 61.7779C128.874 61.7779 130.397 61.7779 131.987 61.7779C131.987 60.4009 131.987 59.0144 131.987 57.5911C132.393 57.5911 132.735 57.5911 133.118 57.5911C133.118 60.7185 133.118 63.8399 133.118 67.0156C132.796 67.0156 132.456 67.0156 132.033 67.0156C132.033 65.7091 132.033 64.38 132.033 63.0062C130.432 63.0062 128.914 63.0062 127.311 63.0062C127.311 63.7579 127.311 64.4904 127.311 65.3035Z" fill="#AEAEAE"/>
<path d="M95.7072 64.8984C95.7072 64.8984 95.1018 66.3319 94.7504 67.0265H93.457C94.7715 63.8631 97.5822 57.5306 97.5822 57.5306L98.5634 57.5305C98.5634 57.5305 101.3 63.8587 102.657 67.0142H101.4L100.454 64.8984H95.7072ZM99.0315 63.8264C99.3269 63.8264 99.6223 63.8264 100.01 63.8264C99.3524 62.2579 98.7245 60.7602 98.058 59.1705C97.3909 60.7592 96.762 62.2569 96.103 63.8264C97.12 63.8264 97.9982 63.8264 99.0315 63.8264Z" fill="#AEAEAE"/>
<path d="M77.3574 67.0421L77.344 63.0152C77.344 63.0152 74.2389 63.0152 72.6065 63.0152C72.6065 64.3562 72.6065 67.0421 72.6065 67.0421C72.6065 67.0421 71.8754 67.0421 71.4883 67.0421C71.4883 63.9167 71.4883 60.778 71.4883 57.5967C71.8142 57.5967 72.1583 57.5967 72.5778 57.5967C72.5778 58.9616 72.5778 60.346 72.5778 61.7793C74.174 61.7793 77.3085 61.7793 77.3085 61.7793C77.3085 61.7793 77.3085 59.0109 77.3085 57.592C77.7413 57.592 78.0859 57.592 78.4749 57.592C78.4749 60.7114 78.4749 67.0421 78.4749 67.0421H77.3574Z" fill="#AEAEAE"/>
<path d="M84.7963 59.8756C84.7963 60.5284 84.7963 61.1 84.7963 61.7302C85.9487 61.7302 87.0916 61.7302 88.2495 61.7302V62.8073C87.1102 62.8073 85.9968 62.8073 84.8407 62.8073C84.8407 63.8781 84.8407 64.8754 84.8407 65.9231C86.3175 65.9231 87.7648 65.9231 89.2514 65.9231C89.2514 66.3166 89.2514 66.6602 89.2514 67.0379C87.3941 67.0379 85.5681 67.0379 83.6895 67.0379C83.6895 63.9073 83.6895 60.7895 83.6895 57.6125C85.4704 57.6125 87.2916 57.6125 89.1545 57.6125C89.1545 57.9459 89.1545 58.285 89.1545 58.689C87.7114 58.689 86.2959 58.689 84.7963 58.689C84.7963 59.0994 84.7963 59.4469 84.7963 59.8756Z" fill="#AEAEAE"/>
<path d="M109.008 37.2845C108.782 35.7251 109.718 34.4064 111.15 34.172C112.488 33.9531 113.935 34.9434 114.16 36.2318C114.411 37.6619 113.568 39.0512 112.266 39.356C110.751 39.7108 109.421 38.8846 109.008 37.2845Z" fill="#AEAEAE"/>
<path d="M19.4684 49.0174C20.4798 47.8222 22.3671 47.9756 23.237 48.8844C24.2383 49.9305 24.304 51.5053 23.3465 52.5725C22.2432 53.8021 20.5848 53.5394 19.7479 52.8334C18.5565 51.8285 18.4314 50.3283 19.4684 49.0174Z" fill="#AEAEAE"/>
<path d="M117.642 57.5522C119.039 57.5522 120.353 57.5522 121.708 57.5522C121.708 57.9454 121.708 58.2848 121.708 58.7021C120.854 58.7021 120.016 58.7021 119.117 58.7021C119.117 61.5133 119.117 64.2486 119.117 67.0269C118.684 67.0269 118.315 67.0269 117.88 67.0269C117.88 64.258 117.88 61.5241 117.88 58.7364C117 58.7364 116.183 58.7364 115.309 58.7364C115.309 58.3415 115.309 57.9998 115.309 57.5522C116.043 57.5522 116.801 57.5522 117.642 57.5522Z" fill="#AEAEAE"/>
<path d="M108.159 65.7892C109.549 65.8668 110.913 65.8668 112.313 65.8668C112.313 66.3228 112.313 66.6417 112.313 67.0152C110.542 67.0152 108.771 67.0152 106.961 67.0152C106.961 63.8668 106.961 60.7457 106.961 57.5889C107.328 57.5889 107.675 57.5889 108.133 57.5889C108.133 60.2944 108.133 63.003 108.159 65.7892Z" fill="#AEAEAE"/>
</svg>
