<svg width="144" height="96" viewBox="0 0 144 96" fill="none" xmlns="http://www.w3.org/2000/svg">
<g clip-path="url(#clip0_2609_2939)">
<path d="M3.86342 47.6254C4.39134 47.0495 5.3272 46.9775 5.85512 47.5534C5.87911 47.3135 5.83112 46.9535 5.54316 46.6656C5.15922 46.2816 4.43933 46.1616 3.91141 46.6896C3.40748 47.1935 3.52747 47.7454 2.95155 48.4653C2.30365 49.2572 1.22382 49.2092 0.503924 48.4653C0.287957 48.2493 0.143978 48.1053 0 47.8654C0.359946 49.3532 0.815877 50.457 1.05584 50.8409C1.22381 51.1529 1.58376 51.6328 2.11168 51.8008C2.6396 51.9688 3.21551 51.8728 3.59946 51.4408C3.9594 51.0089 4.03139 50.553 3.81542 50.0491C3.40749 48.9212 3.2875 48.1773 3.86342 47.6254ZM6.14307 51.1529C6.647 51.3689 6.93495 51.7528 6.95895 52.3287C6.98294 52.9046 6.67099 53.3845 6.19106 53.6005C5.66314 53.8405 5.08723 53.7685 4.72729 53.6725C4.27135 53.5765 3.19152 53.1446 1.84772 52.3287C2.13568 52.4007 2.35164 52.4007 2.6636 52.4007C3.64745 52.4247 4.46333 51.6808 4.36734 50.697C4.27135 49.7851 3.79143 49.4252 3.79143 48.7533C3.79143 48.0094 4.34334 47.5774 4.89526 47.5774C5.3272 47.5534 5.63915 47.7454 5.78313 47.9614C4.99125 47.9374 4.39134 48.6333 4.39134 49.4251C4.41533 50.241 5.01524 50.673 6.14307 51.1529ZM6.09508 50.313C5.51917 49.7851 5.44718 48.8492 6.02309 48.3213C5.78313 48.2973 5.42318 48.3453 5.13522 48.6333C4.75128 49.0172 4.6313 49.7371 5.15922 50.265C5.61515 50.7689 6.21506 50.649 6.93495 51.2249C7.72683 51.8728 7.67884 53.0006 6.93495 53.6725C6.71899 53.8885 6.55101 54.0325 6.33504 54.1764C7.82282 53.8165 8.87866 53.3606 9.2866 53.1206C9.64654 52.9526 10.1025 52.5927 10.2704 52.0647C10.4384 51.5368 10.3424 50.9609 9.9105 50.577C9.47857 50.217 9.02264 50.145 8.49472 50.361C7.39088 50.7689 6.647 50.8649 6.09508 50.313ZM9.64654 48.0334C9.86251 47.5294 10.2225 47.2415 10.7744 47.2175C11.3503 47.1695 11.8302 47.5054 12.0942 48.0094C12.3101 48.5373 12.2621 49.1132 12.1662 49.4491C12.0702 49.9051 11.5902 50.9849 10.8224 52.3287C10.8944 52.0408 10.8944 51.8248 10.8944 51.5128C10.9423 50.529 10.1505 49.7131 9.19061 49.8091C8.27875 49.9051 7.9188 50.361 7.24691 50.361C6.50302 50.361 6.07108 49.7851 6.07108 49.2572C6.04709 48.8252 6.23906 48.5133 6.45502 48.3693C6.43103 49.1612 7.12692 49.7611 7.89481 49.7611C8.73468 49.7131 9.16661 49.1132 9.64654 48.0334ZM8.80667 48.0574C8.25475 48.6333 7.36689 48.7053 6.79097 48.1293C6.76698 48.3693 6.86296 48.7293 7.15092 49.0172C7.53486 49.4012 8.25475 49.5211 8.78267 48.9692C9.2386 48.5133 9.16661 47.9134 9.74253 47.1935C10.3424 46.4016 11.4943 46.4496 12.1422 47.1935C12.3821 47.4095 12.5261 47.5774 12.6701 47.7934C12.3101 46.3056 11.8542 45.2258 11.6142 44.8418C11.4463 44.4819 11.0623 44.026 10.5584 43.858C10.0305 43.69 9.45457 43.786 9.07063 44.2179C8.68669 44.6499 8.63869 45.1058 8.83067 45.6337C9.2386 46.7376 9.38258 47.4814 8.80667 48.0574ZM6.52701 44.5299C6.02309 44.3139 5.73513 43.954 5.71114 43.4021C5.68714 42.8261 5.99909 42.3462 6.50302 42.0823C7.00694 41.8663 7.60685 41.9143 7.9668 42.0103C8.42273 42.1063 9.50256 42.5862 10.7984 43.3541C10.5584 43.2821 10.3424 43.2821 10.0065 43.2821C9.02264 43.2581 8.15877 44.026 8.25475 44.9858C8.35074 45.9217 8.85466 46.2576 8.85466 46.9295C8.85466 47.6734 8.27875 48.1054 7.72683 48.1293C7.34289 48.1293 7.00694 47.9134 6.83897 47.6974C7.65484 47.7214 8.25475 47.0255 8.23076 46.2576C8.20676 45.4658 7.60685 45.0338 6.52701 44.5299ZM6.55101 45.3698C7.12692 45.9457 7.19891 46.8335 6.623 47.3855C6.86296 47.4335 7.22291 47.3615 7.51086 47.0255C7.89481 46.6416 8.01479 45.9217 7.46287 45.3938C7.00694 44.9378 6.40703 45.0098 5.68714 44.4339C4.89526 43.834 4.94325 42.7062 5.68714 42.0343C5.90311 41.7943 6.04709 41.6503 6.28705 41.5063C4.79928 41.8903 3.69544 42.3222 3.3115 42.5622C2.99955 42.7302 2.51962 43.1381 2.35164 43.618C2.18367 44.146 2.27966 44.7219 2.71159 45.1058C3.14352 45.4897 3.59946 45.5377 4.10338 45.3458C5.23121 44.9618 5.9751 44.8178 6.55101 45.3698ZM2.99955 47.6494C2.78358 48.1773 2.39964 48.4173 1.82372 48.4653C1.24781 48.4893 0.767884 48.1773 0.551916 47.6974C0.311953 47.1935 0.383942 46.5936 0.479927 46.2336C0.575913 45.8017 1.00785 44.6979 1.82372 43.4021C1.75173 43.642 1.75174 43.858 1.75174 44.1699C1.72774 45.1538 2.47163 46.0177 3.45548 45.8977C4.36734 45.8017 4.72729 45.2978 5.39918 45.2978C6.14307 45.2978 6.57501 45.8737 6.57501 46.4256C6.623 46.8095 6.40703 47.1455 6.19106 47.3135C6.23906 46.4976 5.51917 45.8977 4.75128 45.9217C3.93541 45.9457 3.52747 46.5456 2.99955 47.6494Z" fill="#AEAEAE"/>
<path d="M19.8212 46.0903V43.4027C19.7972 42.9707 19.4613 42.8028 19.1493 42.7548C18.9813 42.6828 18.7894 42.6828 18.5734 42.6828C18.4294 42.6828 18.3574 42.5148 18.3574 42.3948C18.3574 42.3228 18.4534 42.2988 18.7174 42.2988C19.2933 42.2988 20.3731 42.3228 20.7331 42.3228C21.045 42.3228 22.0529 42.2988 22.6528 42.2988C22.8207 42.2988 22.9647 42.3228 22.9647 42.3948C22.9647 42.4908 22.8687 42.6828 22.7248 42.6828C22.5568 42.6828 22.4368 42.6828 22.2688 42.7308C21.8849 42.8027 21.6209 42.9467 21.5969 43.4027C21.5729 43.8346 21.5729 44.1225 21.5729 46.0903V49.6897C21.5729 50.9615 21.5729 51.8494 21.6449 52.3773C21.6929 52.7372 21.8849 52.9772 22.3648 53.0252C22.5808 53.0732 22.8927 53.0972 23.1567 53.0972C23.3007 53.0972 23.3967 53.2652 23.3967 53.3372C23.3967 53.4331 23.2527 53.4811 23.1087 53.4811C22.0769 53.4811 21.045 53.4331 20.7091 53.4331C20.4211 53.4331 19.3413 53.4811 18.7174 53.4811C18.5014 53.4811 18.4054 53.4571 18.4054 53.3372C18.4054 53.2652 18.4774 53.0972 18.6454 53.0972C18.8853 53.0972 19.0773 53.0732 19.2213 53.0252C19.5092 53.0012 19.7492 52.7852 19.7972 52.3773C19.8692 51.8494 19.8692 50.9615 19.8692 49.6897L19.8212 46.0903ZM26.4202 48.3699C26.4202 48.5139 26.4442 48.5859 26.5162 48.6099C26.8041 48.6819 27.1881 48.7059 27.5 48.7059C28.004 48.7059 28.1719 48.6819 28.4119 48.4899C28.7718 48.2019 29.1558 47.65 29.1558 46.6182C29.1558 44.8184 27.956 44.3385 27.2121 44.3385C26.8521 44.3385 26.6602 44.3865 26.4922 44.4105C26.4202 44.4585 26.3962 44.4825 26.3962 44.5785L26.4202 48.3699ZM24.7405 47.4101C24.7405 45.4184 24.7405 45.1304 24.7165 44.7225C24.6925 44.2905 24.5725 44.0746 24.1405 43.9786C24.0446 43.9786 23.8286 43.9306 23.6366 43.9306C23.4926 43.9306 23.4207 43.8586 23.4207 43.7626C23.4207 43.6906 23.4926 43.6186 23.7086 43.6186C24.3805 43.6186 25.2684 43.6666 25.5563 43.6666C26.0123 43.6666 27.0441 43.6426 27.476 43.6426C28.2919 43.6426 29.1558 43.7386 29.8517 44.2185C30.3796 44.5785 30.8115 45.3224 30.8115 46.1622C30.8115 47.1221 30.5716 48.1059 29.1798 48.9938C30.3076 50.4576 31.1715 51.5134 31.9154 52.3293C32.6593 53.0732 33.0912 53.0732 33.2592 53.1452C33.4031 53.1452 33.5471 53.1932 33.6431 53.1932C33.7151 53.1932 33.8831 53.2172 33.8831 53.3372C33.8831 53.4571 33.8111 53.5051 33.6431 53.5051H32.3233C31.6034 53.5051 31.1235 53.3612 30.7635 53.1932C30.2116 52.8812 29.8037 52.3533 29.1078 51.3455C28.5799 50.6016 28.004 49.7857 27.86 49.5697C27.788 49.4977 27.716 49.4977 27.62 49.4977L26.5162 49.4737C26.4442 49.4737 26.4202 49.5217 26.4202 49.5697V49.7377C26.4202 50.9375 26.4202 51.8734 26.4922 52.4013C26.5162 52.7852 26.5882 53.0732 26.9721 53.1212C27.1881 53.1452 27.476 53.1932 27.62 53.1932C27.716 53.1932 27.788 53.2652 27.788 53.3372C27.788 53.4331 27.692 53.5051 27.5 53.5051C26.7562 53.5051 25.7243 53.4571 25.5083 53.4571C25.2684 53.4571 24.3805 53.5051 23.8526 53.5051C23.7086 53.5051 23.6126 53.4331 23.6126 53.3372C23.6126 53.2652 23.6846 53.1932 23.8286 53.1932C23.9966 53.1932 24.1885 53.1692 24.2845 53.1212C24.5245 53.0972 24.5965 52.8092 24.6685 52.4013C24.7405 51.8734 24.7405 50.9135 24.7405 49.7137V47.434V47.4101ZM32.2513 44.9624C31.9394 44.2425 31.7234 44.1225 31.2675 44.0026C31.0515 43.9306 30.8355 43.9306 30.7396 43.9306C30.6436 43.9306 30.5956 43.8346 30.5956 43.7626C30.5956 43.6666 30.7635 43.6186 30.9555 43.6186C31.6274 43.6186 32.4913 43.6426 32.9472 43.6426C33.2592 43.6426 33.9311 43.5946 34.603 43.5946C34.7469 43.5946 34.8429 43.6666 34.8429 43.7626C34.8429 43.8346 34.7709 43.9066 34.675 43.9066C34.459 43.9066 34.291 43.9306 34.171 44.0026C34.075 44.0746 34.0271 44.1465 34.0271 44.2905C34.0271 44.4345 34.123 44.8184 34.315 45.2744L36.5227 51.0815H36.5707C37.1466 49.6657 38.8023 45.5383 39.1143 44.6505C39.1863 44.5065 39.2583 44.2905 39.2583 44.1945C39.2583 44.0986 39.1863 43.9786 39.0903 43.9546C38.9223 43.8826 38.7303 43.8826 38.5624 43.8826C38.4664 43.8826 38.3944 43.8106 38.3944 43.7146C38.3944 43.6186 38.4904 43.5706 38.7543 43.5706C39.4022 43.5706 39.9542 43.5946 40.1461 43.5946C40.3621 43.5946 41.106 43.5466 41.4899 43.5466C41.6579 43.5466 41.7779 43.5706 41.7779 43.6426C41.7779 43.7386 41.7059 43.8586 41.5619 43.8586C41.4179 43.8586 41.178 43.8586 40.914 44.0266C40.746 44.1225 40.4821 44.4105 40.1221 45.2264C39.6182 46.4742 39.3542 47.0261 38.6344 48.6339C37.7705 50.5056 37.1706 51.9214 36.8826 52.5933C36.5707 53.3372 36.3547 53.3851 36.1627 53.3851C35.8508 53.3851 35.6348 53.2172 35.3229 52.3533L32.2513 44.8904V44.9624Z" fill="#AEAEAE"/>
<path d="M42.4247 47.4096C42.4247 45.4179 42.4247 45.1299 42.4007 44.722C42.4007 44.2901 42.2567 44.0741 41.9688 44.0021C41.8248 43.9781 41.6568 43.9301 41.5128 43.9301C41.3689 43.9301 41.2969 43.8342 41.2969 43.7142C41.2969 43.6422 41.3929 43.6182 41.6088 43.6182C42.1127 43.6182 43.0246 43.6662 43.3846 43.6662C43.6965 43.6662 44.5844 43.6182 45.0883 43.6182C45.2323 43.6182 45.3283 43.6662 45.3283 43.7622C45.3283 43.8581 45.2563 43.9301 45.1123 43.9301C45.0163 43.9301 44.8963 43.9301 44.7284 43.9781C44.4164 44.0501 44.2964 44.2661 44.2724 44.722C44.2484 45.1539 44.2484 45.4419 44.2484 47.4096V49.6893C44.2484 50.9611 44.2484 51.8969 44.3204 52.4488C44.3444 52.8088 44.4164 53.0488 44.8243 53.0968C44.9923 53.1207 45.2803 53.1687 45.4962 53.1687C45.6402 53.1687 45.7122 53.2407 45.7122 53.3127C45.7122 53.3847 45.6162 53.4807 45.4722 53.4807C44.6324 53.4807 43.6965 53.4567 43.3366 53.4567C43.0486 53.4567 42.1367 53.5047 41.6088 53.5047C41.4409 53.5047 41.3689 53.4087 41.3689 53.3367C41.3689 53.2647 41.3929 53.1927 41.5368 53.1927C41.7528 53.1927 41.8968 53.1687 42.0408 53.1207C42.2807 53.0967 42.3527 52.8328 42.4007 52.4728C42.4727 51.9209 42.4727 50.9851 42.4727 49.7133V47.4336L42.4247 47.4096ZM48.3998 51.585C48.4478 52.6168 48.6158 52.9288 48.8557 53.0488C49.0717 53.1207 49.3117 53.1447 49.5276 53.1447C49.6716 53.1447 49.7436 53.2167 49.7436 53.2887C49.7436 53.3847 49.6476 53.4567 49.4556 53.4567C48.6158 53.4567 47.9679 53.4087 47.7279 53.4087C47.6319 53.4087 47.008 53.4327 46.3361 53.4327C46.1681 53.4327 46.0482 53.3607 46.0482 53.2647C46.0482 53.1927 46.1201 53.1207 46.2161 53.1207C46.3841 53.1207 46.6481 53.0728 46.816 53.0488C47.176 52.9528 47.2 52.5448 47.2 51.417L47.224 44.0741C47.224 43.7862 47.368 43.6182 47.4639 43.5702C47.7519 43.5462 47.8959 43.6182 48.2078 43.9541C48.3758 44.1221 50.0795 46.0418 51.9993 47.9375C52.8871 48.8254 54.5429 50.5291 54.8068 50.7451L54.7348 45.154C54.6868 44.3621 54.5909 44.1221 54.2789 43.9781C54.1109 43.9061 53.775 43.9061 53.607 43.9061C53.439 43.9061 53.391 43.8342 53.391 43.7382C53.391 43.6422 53.535 43.5942 53.703 43.5942C54.4229 43.5942 55.0948 43.6182 55.3587 43.6182C55.5027 43.6182 56.1266 43.5702 56.7745 43.5702C56.9185 43.5702 57.0625 43.6182 57.0625 43.7142C57.0625 43.8102 56.9905 43.8821 56.8225 43.8821C56.7265 43.8821 56.6066 43.8821 56.4386 43.9061C56.0786 44.0021 55.9826 44.2901 55.9826 45.034L55.9107 52.9768C55.9107 53.2887 55.7427 53.4087 55.6227 53.4087C55.3827 53.4087 55.2388 53.4087 54.9028 53.0488C54.0869 52.2569 52.5992 50.7931 51.2554 49.4253C49.8396 48.0095 48.4958 46.5217 48.2318 46.2818V46.2818L48.3758 51.537L48.3998 51.585ZM125.26 51.585C125.284 52.6168 125.428 52.9288 125.716 53.0488C125.932 53.1207 126.172 53.1447 126.388 53.1447C126.532 53.1447 126.604 53.2167 126.604 53.2887C126.604 53.3847 126.508 53.4567 126.316 53.4567C125.476 53.4567 124.924 53.4087 124.684 53.4087C124.588 53.4087 123.868 53.4327 123.196 53.4327C123.029 53.4327 122.909 53.3607 122.909 53.2647C122.909 53.1927 122.981 53.0967 123.077 53.1207C123.292 53.1207 123.436 53.1207 123.676 53.0488C124.036 52.9528 124.06 52.5448 124.06 51.417L124.084 44.0741C124.084 43.7862 124.228 43.6182 124.324 43.5702C124.636 43.5462 124.756 43.6182 125.068 43.9541C125.236 44.1221 126.94 46.0418 128.86 47.9375C129.747 48.8254 131.403 50.5291 131.667 50.7451L131.595 45.13C131.571 44.3381 131.451 44.0981 131.139 43.9541C130.971 43.8821 130.635 43.8821 130.467 43.8821C130.299 43.8821 130.251 43.8102 130.251 43.7142C130.251 43.6182 130.395 43.5702 130.563 43.5702C131.283 43.5702 131.955 43.5942 132.219 43.5942C132.363 43.5942 132.987 43.5462 133.635 43.5462C133.779 43.5462 133.923 43.5702 133.923 43.6902C133.923 43.7862 133.851 43.8581 133.683 43.8581C133.587 43.8581 133.467 43.8581 133.299 43.8821C132.939 43.9781 132.843 44.2661 132.843 45.01L132.771 52.9528C132.771 53.2647 132.603 53.3367 132.483 53.3847C132.267 53.3847 132.099 53.3847 131.763 53.0248C130.947 52.2329 129.46 50.7691 128.068 49.4013C126.652 47.9855 125.332 46.4977 125.092 46.2578H125.068L125.212 51.513L125.26 51.585ZM58.7182 47.4816C58.7182 45.4899 58.7182 45.1299 58.6942 44.722C58.6942 44.2901 58.5983 44.0741 58.1663 43.9781C58.0703 43.9781 57.8064 43.9301 57.6384 43.9301C57.4944 43.9301 57.4224 43.8581 57.4224 43.7862C57.4224 43.6902 57.5184 43.6182 57.7104 43.6182C58.0703 43.6182 58.4543 43.6662 58.7662 43.6662H63.9494C64.2374 43.6422 64.3334 43.6422 64.4774 43.6422C64.5254 43.6182 64.6453 43.6182 64.7173 43.6182C64.7893 43.6182 64.7893 43.6422 64.7893 43.7142C64.7893 43.8102 64.7653 43.9301 64.6933 44.506C64.6933 44.65 64.6693 45.2259 64.6693 45.3939C64.6453 45.4419 64.5733 45.5379 64.5014 45.5379C64.4054 45.5379 64.3334 45.4659 64.3334 45.3699C64.3334 45.2739 64.3334 45.082 64.2614 44.938C64.1654 44.698 64.0454 44.554 63.3735 44.482C63.1576 44.4581 60.9259 44.4101 60.6859 44.4101C60.6139 44.4101 60.59 44.4581 60.59 44.554V47.6736C60.59 47.7696 60.6379 47.8415 60.6859 47.8415C60.9739 47.8415 63.3255 47.8415 63.5895 47.8175C63.9015 47.7936 64.1174 47.7456 64.2374 47.6016C64.3334 47.5056 64.3814 47.4336 64.4774 47.4336C64.6213 47.4336 64.6213 47.5296 64.6213 47.6016C64.6213 47.6736 64.5973 47.9135 64.5494 48.5854C64.5254 48.8254 64.4774 49.3773 64.4774 49.4493C64.4774 49.5453 64.4534 49.6893 64.3334 49.6893C64.2374 49.6893 64.1654 49.6653 64.1654 49.5933C64.1654 49.4493 64.1654 49.3533 64.1414 49.2333C64.0694 48.9454 63.9015 48.7774 63.3975 48.7054C63.1576 48.7054 60.9979 48.6814 60.6619 48.6814C60.6379 48.6814 60.59 48.7534 60.59 48.8254V51.609C60.6379 52.5208 61.3338 52.7128 62.9896 52.7128C63.3495 52.7128 63.8775 52.7128 64.2374 52.5688C64.5494 52.4009 64.7413 52.2089 64.7893 51.681C64.8373 51.537 64.8853 51.513 65.0053 51.513C65.1253 51.513 65.1493 51.609 65.1493 51.729C65.1493 52.0409 65.0533 52.9048 64.9813 53.1447C64.9093 53.5047 64.8133 53.5047 64.3094 53.4567H58.7902C58.5023 53.4567 58.1423 53.5047 57.9024 53.5047C57.7344 53.5047 57.6144 53.4087 57.6144 53.3367C57.6144 53.2647 57.6864 53.1927 57.8304 53.1927C58.0463 53.1927 58.2143 53.1687 58.3343 53.0968C58.5743 53.0008 58.6463 52.7368 58.6942 52.3529C58.7662 51.8249 58.7662 50.9371 58.7662 49.7373V47.5056L58.7182 47.4816ZM73.572 52.0409C72.1082 50.7931 71.7243 49.1613 71.7243 47.7456C71.7243 46.7617 72.0362 45.058 73.452 43.7622C74.5558 42.8023 75.9956 42.2024 78.2273 42.2024C79.1391 42.2024 79.7151 42.2744 80.387 42.3464C80.9629 42.4184 81.4428 42.5623 81.8747 42.5863C82.0427 42.6103 82.0907 42.6823 82.0907 42.7543C82.0907 42.8983 82.0667 43.0423 82.0187 43.5702C82.0187 44.0261 82.0187 44.842 81.9947 45.13C81.9947 45.3459 81.9227 45.4899 81.7787 45.4899C81.6348 45.4899 81.6108 45.3459 81.6108 45.1779C81.5868 44.722 81.3948 44.2901 81.0589 43.9301C80.5549 43.4262 79.4511 43.1862 78.1553 43.1862C76.9075 43.1862 76.0196 43.6422 75.3477 44.1701C74.2439 45.082 73.8599 46.3298 73.8599 47.6496C73.8599 50.9371 76.6195 52.4968 78.7312 52.4968C80.123 52.4968 80.7469 52.3529 81.3228 51.705C81.5628 51.417 81.7068 51.129 81.7787 50.8891C81.8507 50.6731 81.8747 50.6731 81.9947 50.6731C82.0907 50.6731 82.1627 50.7691 82.1627 50.8891C82.1627 51.0571 81.9947 52.3289 81.8507 52.8328C81.7788 53.0728 81.7068 53.1447 81.4668 53.2647C80.8669 53.4807 79.7631 53.5767 78.7792 53.5767C76.7155 53.5767 74.9878 53.1447 73.596 51.9689L73.572 52.0409ZM91.7132 48.7774C91.7132 45.9698 90.0815 44.2421 87.9458 44.2421C86.506 44.2421 84.8023 45.034 84.8023 48.1535C84.8023 50.7451 86.2901 52.8328 88.7377 52.8328C89.6496 52.8088 91.7132 52.4009 91.7132 48.7774ZM82.8826 48.5134C82.8826 46.2818 84.3704 43.4022 88.3298 43.4022C91.6173 43.4022 93.6809 45.2739 93.6809 48.2495C93.6809 51.225 91.5453 53.6007 88.1858 53.6007C84.3944 53.6247 82.8826 50.8171 82.8826 48.5134ZM95.4567 43.9061C95.4807 43.6902 95.6247 43.5942 95.7446 43.5942C95.8166 43.5942 95.9126 43.5462 96.1046 43.9061L99.5361 50.4572L103.088 43.8581C103.184 43.6422 103.303 43.5702 103.471 43.5702C103.711 43.5702 103.759 43.7382 103.831 44.2421L104.935 51.729C105.079 52.5448 105.175 52.7848 105.583 52.9768C105.823 53.0728 106.231 53.1207 106.399 53.1207C106.495 53.1207 106.615 53.1927 106.615 53.2647C106.615 53.3607 106.471 53.4327 106.255 53.4327C105.607 53.4087 104.455 53.4087 103.447 53.4087C103.136 53.4567 103.088 53.3127 103.088 53.2407C103.088 53.1687 103.136 53.0967 103.255 53.0728C103.351 53.0488 103.327 52.7608 103.303 52.3529L102.632 47.3856H102.608L99.8 52.7128C99.4881 53.3127 99.4161 53.4327 99.2721 53.4327C99.1041 53.4327 98.9841 53.1927 98.7682 52.7848C98.4562 52.1369 97.4484 50.1932 97.3284 49.8332C97.1604 49.5213 96.4885 48.2015 96.0086 47.2416H95.9846L95.3367 52.0409C95.3127 52.2089 95.3127 52.4248 95.3127 52.6408C95.3367 52.8808 95.5527 53.0248 95.8166 53.0728C95.9126 53.1207 96.1286 53.1447 96.2486 53.1447C96.3685 53.1447 96.4645 53.2167 96.4645 53.2887C96.4645 53.3847 96.3206 53.4567 96.1526 53.4567C95.6247 53.4567 94.9528 53.4087 94.7368 53.4087C94.4968 53.4087 93.7529 53.4567 93.369 53.4567C93.225 53.4567 93.129 53.3847 93.129 53.2887C93.129 53.2167 93.201 53.1447 93.345 53.1447C93.441 53.1447 93.561 53.1447 93.7289 53.1207C94.0889 53.0248 94.1849 52.5208 94.2569 52.0889L95.5287 43.9301L95.4567 43.9061ZM108.079 47.3856C108.079 45.3939 108.079 45.106 108.055 44.698C108.031 44.2661 107.911 44.0501 107.479 43.9541C107.383 43.9541 107.167 43.9061 106.975 43.9061C106.831 43.9061 106.735 43.8342 106.735 43.7382C106.735 43.6662 106.831 43.5942 107.047 43.5942C107.719 43.5942 108.679 43.6422 109.039 43.6422C109.567 43.6422 110.91 43.5942 111.534 43.5942C113.166 43.5942 113.91 44.1221 114.126 44.3381C114.582 44.842 114.99 45.3939 114.942 46.4738C114.846 48.3455 112.998 49.1373 111.15 49.1373C111.078 49.1373 110.766 49.1134 110.718 49.1134C110.502 49.0894 110.358 49.0174 110.358 48.8734C110.358 48.7774 110.526 48.7294 111.078 48.7294C112.038 48.7294 113.31 47.9375 113.382 46.7137C113.382 46.2818 113.238 45.4659 112.566 44.866C112.11 44.4341 111.174 44.3621 110.91 44.3621C110.694 44.3621 110.166 44.4101 110.07 44.4341C109.998 44.4341 109.974 44.506 109.974 44.65V49.6893C109.974 50.8891 109.974 51.7769 110.046 52.3049C110.07 52.6888 110.142 52.9048 110.55 53.0488C110.694 53.0967 111.006 53.1207 111.222 53.1207C111.366 53.1207 111.438 53.2167 111.438 53.2887C111.438 53.3847 111.342 53.4567 111.198 53.4567C110.334 53.4567 109.399 53.4327 109.039 53.4327C108.751 53.4327 107.791 53.4807 107.263 53.4807C107.119 53.4807 107.023 53.3847 107.023 53.3127C107.023 53.2407 107.047 53.1447 107.239 53.1447C107.407 53.1447 107.623 53.1207 107.743 53.0728C107.983 52.9288 108.031 52.7128 108.103 52.3289C108.175 51.8009 108.175 50.9131 108.175 49.7133V47.4576L108.079 47.3856Z" fill="#AEAEAE"/>
<path d="M118.925 49.377C118.997 49.377 118.997 49.3291 118.997 49.3051L117.965 46.7135C117.965 46.6415 117.941 46.6175 117.893 46.6175C117.869 46.6175 117.869 46.6415 117.821 46.7135L116.789 49.3051C116.789 49.3291 116.789 49.377 116.813 49.377H118.925ZM116.574 50.0729C116.526 50.0729 116.502 50.0969 116.478 50.1689L115.83 51.9447C115.734 52.2566 115.662 52.5926 115.662 52.7125C115.662 52.9525 115.758 53.1445 116.166 53.1445H116.334C116.478 53.1445 116.55 53.1685 116.55 53.2885C116.55 53.3844 116.454 53.4564 116.31 53.4564C115.926 53.4564 115.134 53.4084 114.702 53.4084C114.558 53.4084 113.742 53.4564 113.07 53.4564C112.926 53.4564 112.83 53.3844 112.83 53.2885C112.83 53.2165 112.926 53.1445 113.046 53.1445C113.142 53.1445 113.334 53.1205 113.43 53.1205C114.03 53.0485 114.27 52.5926 114.534 51.9447L117.821 44.1458C117.965 43.7619 118.061 43.6179 118.205 43.6179C118.493 43.6179 118.565 43.7619 118.853 44.4098C119.141 45.1297 121.061 49.737 121.901 51.7047C122.261 52.5686 122.549 52.8085 122.741 52.9765C122.957 53.1445 123.316 53.1445 123.484 53.1445C123.58 53.1205 123.772 53.2165 123.772 53.2885C123.772 53.3844 123.556 53.4564 123.053 53.4564C122.597 53.4324 121.421 53.4324 120.437 53.4324C120.221 53.4804 120.053 53.4324 120.053 53.3364C120.053 53.2645 120.077 53.1925 120.221 53.1205C120.365 53.0485 120.365 52.9045 120.293 52.7365L119.333 50.1449C119.309 50.1209 119.261 50.0729 119.189 50.0729H116.574ZM137.81 50.0969C137.81 49.377 137.714 49.1131 137.522 48.7051C137.426 48.4892 135.747 45.7296 135.291 45.0577C134.979 44.5538 134.643 44.2418 134.403 44.0978C134.235 44.0259 134.019 43.9299 133.827 43.9299C133.731 43.9299 133.587 43.8579 133.587 43.7619C133.587 43.6899 133.683 43.6179 133.827 43.6179C134.067 43.6179 135.219 43.6659 135.627 43.6659C135.915 43.6659 136.419 43.6419 136.994 43.6419C137.138 43.6419 137.21 43.7139 137.21 43.7859C137.21 43.8819 137.186 43.9299 136.97 44.0019C136.874 44.0738 136.802 44.1458 136.802 44.2418C136.802 44.3378 136.874 44.4818 136.97 44.6978C137.138 45.0817 138.914 48.1052 139.106 48.4652C139.25 48.1772 140.834 45.3936 141.026 44.9857C141.17 44.6978 141.194 44.4578 141.194 44.3138C141.194 44.1698 141.17 44.0259 140.954 44.0019C140.81 43.9779 140.714 43.9299 140.714 43.7859C140.714 43.7139 140.858 43.6419 141.002 43.6419C141.434 43.6419 141.986 43.6899 142.394 43.6899C142.682 43.6899 143.521 43.6659 143.785 43.6659C143.929 43.6659 144.001 43.7379 144.001 43.8099C144.001 43.9059 143.905 43.9779 143.761 43.9779C143.593 43.9779 143.329 44.0499 143.161 44.1458C142.874 44.2418 142.73 44.4338 142.442 44.7937C142.01 45.2977 140.234 48.2732 139.994 48.8251C139.826 49.2811 139.826 49.689 139.826 50.1449V51.0808C139.826 51.2968 139.826 51.8967 139.85 52.4246C139.874 52.8085 139.994 53.0965 140.378 53.1445C140.546 53.1685 140.834 53.2165 141.026 53.2165C141.17 53.2165 141.242 53.2885 141.242 53.3604C141.242 53.4564 141.146 53.5284 141.002 53.5284C140.162 53.5284 139.202 53.4804 138.842 53.4804C138.53 53.4804 137.522 53.5044 137.042 53.5044C136.826 53.5044 136.754 53.4324 136.754 53.3364C136.754 53.2645 136.826 53.1925 136.97 53.1925C137.186 53.1685 137.33 53.1205 137.474 53.0965C137.762 53.0245 137.834 52.8085 137.834 52.4246C137.858 51.8967 137.858 51.3208 137.858 51.1048V50.1209L137.81 50.0969Z" fill="#AEAEAE"/>
</g>
<defs>
<clipPath id="clip0_2609_2939">
<rect width="144" height="96" fill="white"/>
</clipPath>
</defs>
</svg>
