<svg width="144" height="96" viewBox="0 0 144 96" fill="none" xmlns="http://www.w3.org/2000/svg">
<path d="M112.171 47.4839C112.171 50.5591 110.971 53.6728 108.774 56.2544C106.578 58.836 103.63 60.5973 100.479 61.2056L31 74.6206V36.1841L112.171 20.5063V47.4839ZM34.751 39.0698V70.2856L99.7178 57.7358C102.013 57.2931 104.186 55.9788 105.838 54.0366C107.49 52.0944 108.42 49.7586 108.42 47.4839V24.8403L34.751 39.0698ZM51.4854 49.4819C51.4854 52.4809 49.5607 55.4209 46.8135 57.0562L51.4902 63.1978L46.666 64.1147L42.3809 58.4858L42.3271 58.4956V64.9399L38.2402 65.7163V42.0923L42.3271 41.3159V54.5962L43.7686 54.3228C45.746 53.9408 47.3515 52.129 47.3516 50.2632V40.3608L51.4854 39.5796V49.4819ZM64.4775 41.0044L61.6963 41.5327C59.7173 41.9132 58.1124 43.7255 58.1123 45.5913V54.6685C58.1123 56.5343 59.7173 57.743 61.6963 57.3667L64.4775 56.8374V60.7329L61.6963 61.2612C57.7339 62.0152 54.4705 59.8182 54.0322 56.2749V45.5376C54.4704 41.8286 57.7338 38.3907 61.6963 37.6382L64.4775 37.1099V41.0044ZM73.8916 35.3188C78.0084 34.6896 81.2958 37.2649 81.2959 41.1831V43.8188C81.2958 46.8177 79.3702 49.7568 76.623 51.3921L81.29 57.5347L76.4658 58.4517L72.1807 52.8228L72.127 52.8325V59.2759L68.04 60.0522V36.4292L73.8916 35.3188ZM104.994 45.7554C104.994 49.7714 101.54 53.6841 97.2803 54.4946L87.4365 56.3647L84.002 57.0181V33.395L88.0889 32.6177V52.3472L88.8271 52.2056C90.8061 51.8264 92.4101 50.0133 92.4102 48.1489V31.7993L96.5439 31.0112V47.3628C96.5317 48.5915 96.2298 49.8026 95.6602 50.9077L97.2744 50.5991C99.2534 50.2186 100.857 48.4064 100.857 46.5405V30.1812L104.994 29.4038V45.7554ZM77.1699 41.9683C77.1698 40.1026 75.5642 38.8959 73.5869 39.272L72.1377 39.5464V48.9399L73.5811 48.6636C75.5583 48.2871 77.1638 46.4696 77.1699 44.604V41.9683Z" fill="#AEAEAE"/>
</svg>
