<svg width="144" height="96" viewBox="0 0 144 96" fill="none" xmlns="http://www.w3.org/2000/svg">
<path d="M50.6523 54.018L59.8522 43.099C60.1468 42.7489 59.9013 42.2147 59.441 42.2147H51.5484C51.2538 42.2147 51.0144 41.9752 51.0144 41.6804V38.9169C51.0144 38.6221 51.2538 38.3826 51.5484 38.3826H65.296C65.5906 38.3826 65.83 38.6221 65.83 38.9169V42.2085L56.8081 53.1337C56.5196 53.4837 56.7651 54.0118 57.2254 54.0118H65.6336C65.9282 54.0118 66.1675 54.2514 66.1675 54.5461V57.4693C66.1675 57.7641 65.9282 58.0036 65.6336 58.0036H51.1863C50.8917 58.0036 50.6523 57.7641 50.6523 57.4693V54.018Z" fill="#AEAEAE"/>
<path d="M86.1085 50.4438C86.1085 51.6107 85.9305 52.6792 85.5807 53.6618C85.2308 54.6382 84.7092 55.4919 84.0156 56.2104C83.3221 56.9289 82.4629 57.4939 81.4257 57.8992C80.3885 58.3045 79.1978 58.5072 77.8538 58.5072C76.4851 58.5072 75.2884 58.3045 74.2511 57.8992C73.2201 57.4939 72.3547 56.9289 71.6612 56.2104C70.9677 55.4919 70.446 54.6382 70.0962 53.6618C69.7463 52.6792 69.5684 51.6107 69.5684 50.4438V38.9169C69.5684 38.6221 69.8077 38.3826 70.1023 38.3826H73.3551C73.6497 38.3826 73.889 38.6221 73.889 38.9169V50.2719C73.889 50.8799 73.9872 51.4448 74.1836 51.9607C74.3739 52.4766 74.6501 52.9249 74.9999 53.3056C75.3497 53.6864 75.7732 53.9811 76.2581 54.1899C76.749 54.4049 77.2769 54.5093 77.8538 54.5093C78.4307 54.5093 78.9523 54.4049 79.4311 54.1899C79.9098 53.975 80.3271 53.6802 80.6769 53.3056C81.0268 52.9249 81.3029 52.4766 81.4932 51.9607C81.6896 51.4448 81.7817 50.8799 81.7817 50.2719V38.9169C81.7817 38.6221 82.021 38.3826 82.3156 38.3826H85.5684C85.863 38.3826 86.1023 38.6221 86.1023 38.9169V50.4438H86.1085Z" fill="#AEAEAE"/>
<path d="M89.9805 38.9169C89.9805 38.6221 90.2198 38.3826 90.5144 38.3826H97.2655C98.2843 38.3826 99.2417 38.4747 100.144 38.6589C101.046 38.8432 101.838 39.1625 102.513 39.6169C103.188 40.0714 103.722 40.6794 104.121 41.447C104.52 42.2147 104.716 43.1788 104.716 44.3456C104.716 45.494 104.532 46.4521 104.164 47.2259C103.796 47.9996 103.286 48.6199 102.642 49.0805C101.997 49.5411 101.23 49.8727 100.346 50.0631C99.4627 50.2596 98.4991 50.3517 97.468 50.3517H94.3073V57.4632C94.3073 57.758 94.0679 57.9975 93.7733 57.9975H90.5206C90.226 57.9975 89.9866 57.758 89.9866 57.4632V38.9169H89.9805ZM94.3011 46.6977H97.1796C97.5662 46.6977 97.9406 46.6609 98.3027 46.5872C98.6648 46.5135 98.9839 46.3907 99.2724 46.2126C99.5609 46.0345 99.7879 45.795 99.9659 45.494C100.138 45.187 100.23 44.8062 100.23 44.3456C100.23 43.8482 100.113 43.4429 99.8861 43.142C99.6529 42.8349 99.3583 42.6016 99.0024 42.4357C98.6402 42.2699 98.2413 42.1655 97.7994 42.1164C97.3575 42.0734 96.9341 42.0488 96.5229 42.0488H94.3073V46.6977H94.3011Z" fill="#AEAEAE"/>
<path d="M106.824 48.1962C106.824 46.6241 107.088 45.2055 107.616 43.9281C108.144 42.6508 108.874 41.5699 109.819 40.6733C110.764 39.7767 111.881 39.0889 113.17 38.6099C114.465 38.1309 115.877 37.8914 117.411 37.8914C118.945 37.8914 120.357 38.1309 121.652 38.6099C122.947 39.0889 124.064 39.7767 125.003 40.6733C125.942 41.5699 126.678 42.6569 127.206 43.9281C127.734 45.2055 127.998 46.6241 127.998 48.1962C127.998 49.7684 127.734 51.187 127.206 52.4644C126.678 53.7417 125.948 54.8226 125.003 55.7192C124.058 56.6158 122.941 57.3036 121.652 57.7826C120.357 58.2616 118.945 58.5011 117.411 58.5011C115.877 58.5011 114.465 58.2616 113.17 57.7826C111.875 57.3036 110.758 56.6158 109.819 55.7192C108.88 54.8226 108.144 53.7356 107.616 52.4644C107.088 51.187 106.824 49.7684 106.824 48.1962ZM111.311 48.1962C111.311 49.1174 111.452 49.9649 111.74 50.7325C112.023 51.5002 112.44 52.1634 112.974 52.7284C113.508 53.2934 114.152 53.7294 114.901 54.0426C115.65 54.3558 116.484 54.5155 117.405 54.5155C118.332 54.5155 119.166 54.362 119.909 54.0426C120.658 53.7294 121.296 53.2873 121.836 52.7284C122.37 52.1634 122.781 51.5002 123.07 50.7325C123.358 49.9649 123.499 49.1174 123.499 48.1962C123.499 47.2935 123.358 46.4521 123.07 45.6722C122.781 44.8984 122.37 44.229 121.836 43.6641C121.302 43.0991 120.658 42.663 119.909 42.3498C119.16 42.0366 118.326 41.877 117.405 41.877C116.478 41.877 115.644 42.0366 114.901 42.3498C114.152 42.663 113.514 43.1052 112.974 43.6641C112.44 44.229 112.029 44.8984 111.74 45.6722C111.452 46.4521 111.311 47.2935 111.311 48.1962Z" fill="#AEAEAE"/>
<g clip-path="url(#clip0_2609_3021)">
<path d="M36.9258 46.9692H30.5434C27.9277 46.9692 29.7064 44.3535 27.0906 44.3535H24.9981H18.6157C17.1509 44.3535 16 45.5044 16 46.9692C16 48.434 17.1509 49.585 18.6157 49.585H24.9981C27.6138 49.585 25.8351 52.2007 28.4508 52.2007H30.5434H36.9258C38.3906 52.2007 39.5415 51.0498 39.5415 49.585C39.5415 48.1202 38.3906 46.9692 36.9258 46.9692Z" fill="#AEAEAE"/>
<path d="M28.5024 54.8164H26.2005C23.5848 54.8164 25.3635 52.2007 22.7478 52.2007H20.7075C19.2427 52.2007 18.0918 53.3516 18.0918 54.8164C18.0918 56.2812 19.2427 57.4321 20.7075 57.4321H23.0093C25.6251 57.4321 23.8464 60.0478 26.4621 60.0478H28.5024C29.9672 60.0478 31.1181 58.8969 31.1181 57.4321C31.1181 55.9673 29.9672 54.8164 28.5024 54.8164Z" fill="#AEAEAE"/>
<path d="M27.0376 41.7378H29.3394C31.9551 41.7378 30.1765 44.3535 32.7922 44.3535H34.8324C36.2972 44.3535 37.4482 43.2026 37.4482 41.7378C37.4482 40.273 36.2972 39.1221 34.8324 39.1221H32.5306C29.9149 39.1221 31.6936 36.5063 29.0779 36.5063H27.0376C25.5728 36.5063 24.4219 37.6573 24.4219 39.1221C24.4219 40.5869 25.5728 41.7378 27.0376 41.7378Z" fill="#AEAEAE"/>
</g>
<defs>
<clipPath id="clip0_2609_3021">
<rect width="23.5415" height="23.5415" fill="white" transform="translate(16 36.5063)"/>
</clipPath>
</defs>
</svg>
