<svg width="144" height="96" viewBox="0 0 144 96" fill="none" xmlns="http://www.w3.org/2000/svg">
<g clip-path="url(#clip0_2609_3032)">
<g clip-path="url(#clip1_2609_3032)">
<path d="M88.5085 36.7339H87.4008L80.0039 58.1245H81.1116L88.5085 36.7339Z" fill="#AEAEAE"/>
<path d="M8.33751 43.192C8.53033 43.3643 8.70264 43.7634 8.70264 44.192C8.70264 44.6374 8.46059 45.108 8.1693 45.108C8.04623 45.108 7.92725 45.0575 7.82879 44.9357C7.29546 44.2634 6.397 43.6206 5.40007 43.6206C3.69751 43.6164 2.04828 44.9861 2.04828 47.6205C2.04828 49.5617 3.3611 51.8726 5.95802 51.8726C7.3652 51.8726 8.09546 51.2214 8.65341 50.3768C8.84623 50.3264 9.06366 50.4987 9.09238 50.7256C8.26777 52.5659 6.44623 53.2592 5.03905 53.2592C3.75494 53.2592 2.5652 52.8348 1.71187 51.9903C0.862636 51.1457 0.304688 49.923 0.304688 48.3096C0.304688 45.6248 2.14674 42.7634 6.17956 42.7634C6.73341 42.7676 7.6811 42.8937 8.33751 43.192Z" fill="#AEAEAE"/>
<path d="M17.3205 47.7675C17.6857 47.6415 17.7308 47.4188 17.7308 47.0449L17.7554 45.8978C17.78 44.9818 17.4887 43.734 15.9831 43.734C15.3021 43.734 14.4775 44.0869 14.4282 44.8558C14.4036 45.255 14.379 45.5491 14.1862 45.7003C13.821 45.9986 13.1687 46.1709 12.8036 46.1709C12.5862 46.1709 12.4672 46.0491 12.4672 45.8222C12.4672 44.5323 15.2118 42.7676 16.9841 42.7676C18.7318 42.7676 19.581 43.8096 19.5072 45.6751L19.3595 50.0028C19.3103 51.1457 19.5277 52.1625 20.4754 52.1625C20.7175 52.1625 20.9349 52.091 21.0826 52.0154C21.2016 51.9398 21.3246 51.8432 21.3985 51.8432C21.4969 51.8432 21.5667 51.9902 21.5667 52.1667C21.5667 52.2927 20.7175 53.2633 19.5277 53.2633C18.9451 53.2633 18.3626 53.0364 17.9523 52.4944C17.858 52.3431 17.7103 52.1457 17.5626 52.1457C17.3944 52.1457 17.1031 52.3684 16.6149 52.6415C16.0816 52.9398 15.5441 53.2633 14.8672 53.2633C14.1616 53.2633 13.579 53.0616 13.1687 52.6919C12.7093 52.2675 12.418 51.6499 12.418 50.9482C12.418 49.9776 12.8816 49.4062 14.4323 48.839L17.3205 47.7675ZM15.8149 52.1415C16.3031 52.1415 17.0539 51.7675 17.2959 51.5154C17.5872 51.2213 17.5872 50.8684 17.6118 50.3516L17.661 48.881C17.661 48.6079 17.5626 48.5617 17.4149 48.5617C17.2713 48.5617 16.8569 48.6625 16.418 48.8096C14.9862 49.3011 14.2805 49.6793 14.2805 50.6499C14.2846 51.0742 14.5759 52.1415 15.8149 52.1415Z" fill="#AEAEAE"/>
<path d="M25.8616 45.7798C25.8616 44.8134 25.8616 44.6874 25.2052 44.2378L24.9878 44.0907C24.8893 43.9857 24.8893 43.7126 25.0124 43.637C25.6401 43.3639 26.7806 42.7672 27.4124 42.2966C27.5601 42.2966 27.6544 42.3471 27.7037 42.4689C27.6585 42.9143 27.6093 43.2924 27.6093 43.6117C27.6093 43.784 27.6585 43.9353 27.8308 43.9353C28.1467 43.784 29.677 42.7672 31.2278 42.7672C33.677 42.7672 35.2565 44.8092 35.2565 47.3176C35.2565 50.7714 32.7785 53.2587 29.3365 53.2587C28.8975 53.2587 28.2206 53.2083 27.999 53.1579C27.7816 53.2083 27.6585 53.3344 27.6585 53.8554V56.4688C27.6585 58.2335 27.7037 58.4562 28.5816 58.578L29.5293 58.7083C29.6975 58.8301 29.6483 59.2545 29.4801 59.3301C28.3149 59.2755 27.6093 59.2545 26.7601 59.2545C25.8862 59.2545 25.156 59.2797 24.4749 59.3301C24.3067 59.2545 24.2575 58.8301 24.4298 58.7083L24.9385 58.6327C25.837 58.5108 25.8616 58.2629 25.8616 56.473V45.7798ZM27.6585 50.4016C27.6585 51.1957 27.9006 51.494 28.3888 51.8932C28.8729 52.2672 29.6237 52.4394 30.1365 52.4394C32.1303 52.4394 33.2914 50.5529 33.2914 47.9647C33.2914 45.9773 32.2001 43.9647 30.0134 43.9647C28.9673 43.9647 28.2165 44.3638 27.9498 44.658C27.7283 44.9311 27.6585 45.305 27.6585 46.1285V50.4016Z" fill="#AEAEAE"/>
<path d="M42.9022 44.1625C42.4878 44.1625 42.4673 44.2381 42.4673 44.7591V49.4061C42.4673 50.8515 42.6355 52.1666 44.2355 52.1666C44.4817 52.1666 44.6991 52.1162 44.8919 52.0406C45.1135 51.9691 45.4212 51.6918 45.4991 51.6918C45.6919 51.6918 45.7904 51.9649 45.7412 52.1162C45.3063 52.6372 44.4283 53.2591 43.1935 53.2591C41.1053 53.2591 40.6704 52.0658 40.6704 50.5742V44.881C40.6704 44.2087 40.6458 44.1583 40.1617 44.1583H39.4806C39.3371 44.0574 39.3124 43.7843 39.4109 43.6373C40.1124 43.4146 40.7196 43.0911 40.9658 42.8684C41.2817 42.57 41.7412 41.8936 41.9832 41.402C42.1063 41.3516 42.3935 41.3516 42.4919 41.5238V42.6457C42.4919 43.0911 42.5165 43.1205 42.9309 43.1205H45.6263C45.9176 43.3432 45.8683 44.0154 45.6509 44.1625H42.9022Z" fill="#AEAEAE"/>
<path d="M50.784 45.78C50.784 44.8136 50.784 44.6834 50.1276 44.238L49.9102 44.0909C49.8117 43.9859 49.8117 43.7128 49.9348 43.6372C50.4928 43.4397 51.8753 42.7968 52.4333 42.4187C52.5564 42.4187 52.6507 42.4691 52.6794 42.5699C52.6302 43.4397 52.581 44.6329 52.581 45.6497V50.1287C52.581 51.9186 52.6302 52.1665 53.504 52.2884L54.0128 52.364C54.181 52.49 54.1358 52.9102 53.9676 52.9816C53.2374 52.9354 52.5358 52.9102 51.6866 52.9102C50.8128 52.9102 50.0825 52.9354 49.4015 52.9816C49.2333 52.9102 49.184 52.49 49.3522 52.364L49.861 52.2884C50.7594 52.1623 50.7799 51.9144 50.7799 50.1287V45.78H50.784ZM52.7984 39.1162C52.7984 40.0069 52.1912 40.4061 51.5102 40.4061C50.7594 40.4061 50.2712 39.8347 50.2712 39.1624C50.2712 38.3389 50.8538 37.8179 51.584 37.8179C52.3143 37.8221 52.7984 38.4145 52.7984 39.1162Z" fill="#AEAEAE"/>
<path d="M59.0667 45.5786C58.7016 44.6542 58.4841 43.8643 57.6103 43.7382L57.1262 43.6626C56.9785 43.4651 57.0031 43.1164 57.2 43.045C57.8072 43.0912 58.6565 43.1206 59.4811 43.1206C60.1375 43.1206 60.6216 43.0912 61.4462 43.045C61.6144 43.1458 61.639 43.5408 61.4708 43.6626L61.1795 43.7088C60.4247 43.8349 60.4 43.9609 60.6462 44.7088C61.2041 46.4189 61.9057 48.1626 62.4677 49.4567C62.6893 49.9525 62.7836 50.1752 62.8575 50.2508C62.9518 50.1752 63.1241 49.8264 63.317 49.3054C63.6288 48.4609 64.4575 46.3013 64.6995 45.65C65.04 44.7803 65.1344 44.2593 65.1344 44.108C65.1344 43.8853 64.9908 43.7845 64.6995 43.734L64.1416 43.6584C63.998 43.4861 64.0185 43.1374 64.1908 43.0408C64.9416 43.087 65.5488 43.1164 66.0124 43.1164C66.6195 43.1164 67.0339 43.087 67.7108 43.0408C67.879 43.1416 67.9036 43.5114 67.7559 43.6584L67.3949 43.7046C66.5457 43.8307 66.3283 44.4777 65.6226 45.8685C65.2821 46.5365 63.7765 50.1458 63.3867 51.1626C63.1447 51.7844 62.9026 52.36 62.5867 53.2046C62.5375 53.2802 62.4431 53.3012 62.3447 53.3012C62.2257 53.3012 62.1026 53.2802 62.0288 53.2046C61.8318 52.5071 61.4708 51.5365 61.1057 50.6164L59.0667 45.5786Z" fill="#AEAEAE"/>
<path d="M72.9972 46.5488C72.3654 46.5488 72.3408 46.5992 72.3408 47.221C72.3408 49.7336 73.7726 51.8765 76.3695 51.8765C77.1737 51.8765 77.8506 51.6244 78.6013 50.658C78.8434 50.5824 79.0116 50.7336 79.0403 50.9521C78.2403 52.6454 76.4885 53.2672 75.229 53.2672C73.6537 53.2672 72.4147 52.5739 71.709 51.6244C70.9788 50.658 70.6875 49.4857 70.6875 48.3933C70.6875 45.3345 72.6526 42.7715 75.5654 42.7715C77.6536 42.7715 79.0116 44.2379 79.0116 45.7294C79.0116 46.0782 78.9624 46.2757 78.8434 46.3765C78.5029 46.5488 77.4813 46.5488H72.9972ZM74.5029 45.8009C76.2998 45.8009 76.8331 45.7 77.0301 45.553C77.1039 45.5068 77.1778 45.4059 77.1778 45.0866C77.1778 44.3849 76.7142 43.5152 75.3029 43.5152C73.8752 43.5152 72.6362 44.8597 72.6116 45.679C72.6116 45.7294 72.6116 45.8009 72.7839 45.8009H74.5029Z" fill="#AEAEAE"/>
<path d="M92.001 46.5488C91.3692 46.5488 91.3445 46.5992 91.3445 47.221C91.3445 49.7336 92.7763 51.8765 95.3733 51.8765C96.1733 51.8765 96.8543 51.6244 97.6051 50.658C97.8471 50.5824 98.0194 50.7336 98.044 50.9521C97.244 52.6454 95.4963 53.2672 94.2327 53.2672C92.6574 53.2672 91.4184 52.5739 90.7127 51.6244C89.9866 50.658 89.6953 49.4857 89.6953 48.3933C89.6953 45.3345 91.6604 42.7715 94.5733 42.7715C96.6615 42.7715 98.0194 44.2379 98.0194 45.7294C98.0194 46.0782 97.9702 46.2757 97.921 46.3765C97.8471 46.5278 97.5066 46.5488 96.4892 46.5488H92.001ZM93.5066 45.8009C95.3035 45.8009 95.8369 45.7 96.0297 45.553C96.1035 45.5068 96.1733 45.4059 96.1733 45.0866C96.1733 44.3849 95.7179 43.5152 94.3066 43.5152C92.8748 43.5152 91.6317 44.8597 91.6112 45.679C91.6112 45.7294 91.6112 45.8009 91.7794 45.8009H93.5066Z" fill="#AEAEAE"/>
<path d="M103.186 45.78C103.186 44.8094 103.186 44.6875 102.534 44.2379L102.312 44.0909C102.214 43.9858 102.214 43.7169 102.337 43.6413C102.895 43.4438 104.277 42.7968 104.835 42.4228C104.954 42.4228 105.053 42.4775 105.077 42.5699C105.028 43.4438 104.979 44.6371 104.979 45.6539V50.1287C104.979 51.9186 105.028 52.1665 105.902 52.2883L106.411 52.3639C106.579 52.49 106.534 52.9102 106.361 52.9816C105.635 52.9354 104.93 52.9102 104.08 52.9102C103.206 52.9102 102.476 52.9354 101.799 52.9816C101.627 52.9102 101.582 52.49 101.75 52.3639L102.259 52.2883C103.157 52.1623 103.178 51.9186 103.178 50.1287V45.78H103.186ZM105.204 39.1161C105.204 40.0111 104.597 40.4102 103.916 40.4102C103.165 40.4102 102.677 39.8388 102.677 39.1666C102.677 38.343 103.26 37.822 103.986 37.822C104.72 37.822 105.204 38.4229 105.204 39.1161Z" fill="#AEAEAE"/>
<path d="M123.551 38.8979C123.551 37.4315 123.527 37.2802 122.801 36.8307L122.559 36.6836C122.44 36.608 122.44 36.2634 122.559 36.1836C123.166 35.9861 124.306 35.6164 125.18 35.1416C125.274 35.1416 125.373 35.192 125.422 35.2887C125.397 36.0366 125.348 37.2802 125.348 38.3685V43.5911C125.348 43.8138 125.373 44.0113 125.447 44.0617C126.325 43.3684 127.486 42.7676 128.725 42.7676C131.03 42.7676 131.855 44.234 131.855 45.9777V50.1289C131.855 51.9188 131.904 52.1919 132.778 52.2885L133.434 52.3642C133.607 52.4902 133.557 52.9104 133.385 52.9818C132.511 52.9356 131.806 52.9104 130.956 52.9104C130.083 52.9104 129.352 52.9314 128.696 52.9818C128.528 52.9104 128.479 52.4902 128.651 52.3642L129.135 52.2885C130.033 52.1415 130.058 51.9188 130.058 50.1289V46.5743C130.058 44.9861 129.307 43.9147 127.752 43.9147C126.924 43.9147 126.296 44.213 125.857 44.5869C125.422 44.9567 125.348 45.0827 125.348 45.9525V50.1289C125.348 51.9188 125.397 52.1667 126.271 52.2885L126.78 52.3642C126.952 52.4608 126.899 52.9104 126.731 52.9818C126.005 52.9356 125.303 52.9104 124.45 52.9104C123.576 52.9104 122.85 52.9314 122.074 52.9818C121.902 52.9104 121.853 52.4902 122.025 52.3642L122.632 52.2885C123.531 52.1877 123.551 51.9188 123.551 50.1289V38.8979Z" fill="#AEAEAE"/>
<path d="M140.716 44.1665C140.301 44.1665 140.281 44.2379 140.281 44.7589V49.4102C140.281 50.8513 140.449 52.1664 142.053 52.1664C142.295 52.1664 142.512 52.1202 142.709 52.0446C142.927 51.969 143.243 51.6959 143.317 51.6959C143.509 51.6959 143.608 51.9732 143.559 52.1202C143.12 52.6412 142.246 53.2631 141.011 53.2631C138.923 53.2631 138.484 52.0698 138.484 50.5782V44.885C138.484 44.2127 138.463 44.1665 137.975 44.1665H137.294C137.15 44.0657 137.126 43.7968 137.22 43.6413C137.926 43.4186 138.533 43.0951 138.775 42.8682C139.091 42.5699 139.55 41.9018 139.797 41.4018C139.92 41.3514 140.211 41.3514 140.305 41.5279V42.6497C140.305 43.0951 140.33 43.1203 140.744 43.1203H143.44C143.727 43.343 143.682 44.0152 143.46 44.1665H140.716Z" fill="#AEAEAE"/>
<path d="M116.047 51.2339C117.368 50.3389 119.173 49.3347 119.173 47.1121C119.173 44.507 117.134 43.1499 114.775 43.1499C112.076 43.1499 109.877 44.7759 109.902 47.5448C109.926 49.6331 111.387 50.9356 112.921 51.8011L113.664 52.2633C115.739 53.3935 117.581 54.654 117.581 56.7969C117.581 58.7759 116.388 60.0784 114.509 60.0784C112.548 60.0784 111.251 58.3935 111.251 56.1162C111.251 55.3977 111.44 54.612 111.99 53.8347L111.026 53.175C110.045 54.0196 109.348 55.0154 109.348 56.3599C109.348 59.6708 111.887 60.8893 114.246 60.8893C117.348 60.8893 119.543 59.154 119.543 56.2801C119.543 53.7003 117.877 52.2885 116.047 51.2339ZM111.813 46.9734C111.813 45.3978 112.765 43.965 114.595 43.965C116.289 43.965 117.405 45.5112 117.405 47.1625C117.405 48.7087 116.503 49.9314 115.284 50.8263C113.61 49.986 111.813 48.8473 111.813 46.9734Z" fill="#AEAEAE"/>
</g>
</g>
<defs>
<clipPath id="clip0_2609_3032">
<rect width="144" height="96" fill="white"/>
</clipPath>
<clipPath id="clip1_2609_3032">
<rect width="144" height="28.0976" fill="white" transform="translate(0 33.5063)"/>
</clipPath>
</defs>
</svg>
