<svg width="144" height="96" viewBox="0 0 144 96" fill="none" xmlns="http://www.w3.org/2000/svg">
<g clip-path="url(#clip0_2609_2974)">
<path d="M24.7111 42.873C23.5833 42.873 23.2333 43.0286 23.2333 43.923V51.2341C23.2333 51.5841 23.35 53.8786 23.7389 54.3063C24.2056 54.8119 25.4889 55.0841 26.8111 55.0841C29.9222 55.0841 32.2167 52.9452 32.2167 49.4063C32.1778 45.7508 29.1444 42.873 24.7111 42.873ZM26.0333 31.4786C23.35 31.4786 23.2333 31.8286 23.2333 32.6452V41.5119C23.2333 42.173 23.7778 42.0952 24.75 42.0952C27.2389 42.0952 28.95 42.3286 28.95 42.3286C30.1167 41.4341 31.4778 40.6563 31.4778 37.4286C31.4778 35.4063 29.7667 31.4786 26.0333 31.4786ZM26.5778 55.823C24.8667 55.823 23.1556 55.4341 21.3667 55.4341C19.6556 55.4341 18.7611 55.5897 17.4389 55.5897C17.0111 55.5897 16.7389 55.5508 16.7389 55.123C16.7389 54.6952 16.9722 54.6175 17.8667 54.6175C19.6944 54.6175 19.7722 54.5397 19.7722 53.9175V35.173C19.7722 31.9452 19.1111 31.5952 17.9833 31.5952C16.1556 31.5563 16 31.5175 16 31.0508C16 30.7786 16.1167 30.7397 16.8167 30.7397C18.1 30.7397 19.3444 30.7786 20.7833 30.7786C21.6389 30.7397 23.5833 30.5063 27.2778 30.5063C32.6056 30.5063 34.8611 33.2286 34.8611 36.1452C34.8611 39.0619 33.1111 40.4619 31.7889 41.3563C31.0111 41.9008 30.1167 42.3286 30.1167 42.4452C30.1167 42.523 30.8944 42.7175 31.7111 43.1452C33.6167 44.1175 36.0278 45.5175 36.0278 49.0563C36.0667 53.6452 32.2556 55.823 26.5778 55.823Z" fill="#AEAEAE"/>
<path d="M43.6107 41.4334C40.9274 41.4334 40.0718 45.4778 40.0718 45.9834C40.0718 46.1778 40.0718 46.1778 40.4996 46.1778C42.3663 46.1778 44.2718 45.7111 46.9163 45.2834C47.3052 45.2056 47.3441 45.1278 47.3441 44.9334C47.3441 44.0389 45.2441 41.4334 43.6107 41.4334ZM49.0552 45.6723C48.1218 45.8667 44.5829 46.6834 40.5385 46.9167C39.9552 46.9556 39.8774 47.1111 39.8774 47.9278C39.8774 52.8278 43.6885 54.15 46.3718 54.15C48.7052 54.15 49.9885 53.2945 50.2218 53.2945C50.4163 53.2945 50.4941 53.4889 50.4941 53.5667C50.4941 53.7611 47.4607 55.9778 44.5829 55.9778C41.6663 55.9778 37.3496 54.5389 37.3496 48.6278C37.3496 43.6111 40.7329 40.6167 43.9607 40.6167C45.8274 40.6167 48.0829 41.7834 49.3663 43.3C49.9885 44 50.5329 44.8556 50.5329 45.1278C50.5329 45.3223 50.0274 45.4778 49.0552 45.6723Z" fill="#AEAEAE"/>
<path d="M62.0836 44.7393C61.578 44.7393 61.1503 43.3004 59.4003 43.3004C57.3391 43.3004 56.5614 44.156 56.5614 45.6338V52.9449C56.5614 54.6949 56.678 54.6949 59.2836 54.6949C60.2169 54.6949 60.2558 54.8116 60.2558 55.1227C60.2558 55.5116 60.2169 55.4727 59.2836 55.4727C58.778 55.4727 56.4058 55.2782 55.278 55.2782C54.0725 55.2782 52.8669 55.4727 52.3614 55.4727C51.5447 55.4727 51.4669 55.4727 51.4669 55.1227C51.4669 54.7727 51.5058 54.6949 52.3614 54.6949C53.8003 54.6949 53.9169 54.656 53.9169 54.1504V44.4282C53.9169 42.0171 53.9947 41.9393 52.0114 41.9393C51.3892 41.9393 51.3892 41.9782 51.3892 41.5893C51.3892 41.1616 51.3503 41.0449 51.9725 41.0449C53.178 41.0449 53.8391 41.1227 54.578 41.1227C55.1614 41.1227 55.8225 40.9282 56.4058 40.9282C56.5614 40.9282 56.678 41.0449 56.678 41.3171C56.678 41.5116 56.6003 42.2893 56.6003 42.3671C56.6003 42.6782 56.6391 42.9504 56.7947 42.9504C57.3391 42.9504 59.0114 41.0838 60.6836 41.0838C61.3058 41.0838 62.9391 41.8616 62.9391 42.7949C62.8614 43.1449 62.278 44.7393 62.0836 44.7393Z" fill="#AEAEAE"/>
<path d="M78.8813 55.5895C78.4535 55.5895 77.9869 55.5507 77.6757 55.5507C77.248 55.5507 76.198 55.5895 75.6924 55.5895C75.0702 55.5895 74.7202 54.6951 73.2424 52.984C71.7646 51.2729 70.248 49.0562 70.0535 49.0562C69.898 49.0562 69.4313 49.4062 68.8091 49.7951C68.2257 50.1451 67.7591 50.4173 67.7591 50.7284V52.984C67.7591 54.6562 67.6813 54.6562 69.898 54.6562C70.7146 54.6562 70.8702 54.8507 70.8702 55.1229C70.8702 55.4729 70.6757 55.4729 69.898 55.4729C69.3535 55.4729 67.7202 55.3951 66.5924 55.3951C65.3869 55.3951 64.0646 55.4729 63.5591 55.4729C62.7424 55.4729 62.548 55.434 62.548 55.1229C62.548 54.8507 62.7424 54.6562 63.5591 54.6562C64.7646 54.6562 65.0757 54.6562 65.0757 54.1118C65.0757 53.1007 65.1924 42.5618 65.1924 35.0562C65.1924 32.5284 64.9202 32.2173 63.948 32.2173C62.5091 32.2173 62.3535 32.1007 62.3535 31.8673C62.3535 31.5173 62.4313 31.3618 62.8202 31.3618C65.3869 31.3618 67.4868 30.584 67.798 30.584C67.9924 30.584 68.0313 30.7007 68.0313 30.8951C68.0313 31.3618 67.9535 32.8395 67.9535 33.9673C67.9535 39.3729 67.7591 43.3395 67.7591 49.134C67.7591 49.2895 67.798 49.3673 67.9146 49.3673C68.8091 49.3673 72.5035 46.1007 73.6313 45.0507C75.0313 43.7284 75.3424 43.1451 75.3424 42.4062C75.3424 41.8229 75.2257 41.784 73.6702 41.784C73.1257 41.784 72.9702 41.7062 72.9702 41.3951C72.9702 41.1229 73.1646 41.0451 73.5924 41.0451C73.9424 41.0451 74.6035 41.1618 75.0313 41.1618C75.498 41.1618 77.5591 41.0451 77.9869 41.0451C78.2591 41.0451 78.4146 41.084 78.4146 41.2007C78.4146 41.5118 77.2091 43.0673 76.1202 44.1173C74.3313 45.8673 72.1535 47.4229 72.1535 47.6562C72.1535 47.9673 72.7757 48.6673 75.2646 51.6229C76.4702 53.0618 77.598 54.8118 78.8035 54.8118C79.6591 54.8118 79.9313 55.0062 79.9313 55.2784C79.8924 55.5118 79.6591 55.5895 78.8813 55.5895Z" fill="#AEAEAE"/>
<path d="M85.0269 41.4334C82.3436 41.4334 81.488 45.4778 81.488 45.9834C81.488 46.1778 81.488 46.1778 81.9158 46.1778C83.7436 46.1778 85.688 45.7111 88.3325 45.2834C88.7214 45.2056 88.7602 45.1278 88.7602 44.9334C88.7602 44.0389 86.6602 41.4334 85.0269 41.4334ZM90.5102 45.6723C89.5769 45.8667 86.038 46.6834 81.9936 46.9167C81.4102 46.9556 81.3325 47.1111 81.3325 47.9278C81.3325 52.8278 85.1436 54.15 87.8269 54.15C90.1602 54.15 91.4436 53.2945 91.6769 53.2945C91.8714 53.2945 91.9491 53.4889 91.9491 53.5667C91.9491 53.7611 88.9158 55.9778 86.038 55.9778C83.1214 55.9778 78.8047 54.5389 78.8047 48.6278C78.8047 43.6111 82.188 40.6167 85.4158 40.6167C87.2825 40.6167 89.538 41.7834 90.8213 43.3C91.4436 44 91.988 44.8556 91.988 45.1278C91.9491 45.3223 91.4436 45.4778 90.5102 45.6723Z" fill="#AEAEAE"/>
<path d="M98.3288 55.4734C97.7843 55.4734 97.0066 55.3957 96.3843 55.3957C95.1788 55.3957 93.3121 55.4734 92.8066 55.4734C91.9899 55.4734 91.9121 55.3957 91.9121 55.1234C91.9121 54.8901 91.951 54.6568 92.8066 54.6568C94.2454 54.6568 94.8677 54.6957 94.8677 54.0345V34.4734C94.8677 32.2179 94.6732 32.2179 93.0399 32.2179C92.4177 32.2179 92.0288 32.1401 92.0288 31.7512C92.0288 31.3234 92.301 31.3623 92.9232 31.3234C95.6843 31.129 97.0454 30.5457 97.2399 30.5457C97.4343 30.5457 97.5899 30.7401 97.5899 31.129C97.5899 31.5568 97.3955 32.8401 97.3955 33.8901C97.3955 47.4234 97.201 50.2234 97.201 51.2734C97.201 54.229 97.4343 54.6179 98.0955 54.6179C99.8843 54.6179 99.8066 54.8123 99.8066 55.1234C99.8455 55.4734 99.6121 55.4734 98.3288 55.4734Z" fill="#AEAEAE"/>
<path d="M105.523 41.4334C102.839 41.4334 101.984 45.4778 101.984 45.9834C101.984 46.1778 101.984 46.1778 102.412 46.1778C104.278 46.1778 106.184 45.7111 108.828 45.2834C109.217 45.2056 109.256 45.1278 109.256 44.9334C109.256 44.0389 107.156 41.4334 105.523 41.4334ZM110.967 45.6723C110.034 45.8667 106.495 46.6834 102.451 46.9167C101.867 46.9556 101.789 47.1111 101.789 47.9278C101.789 52.8278 105.601 54.15 108.284 54.15C110.617 54.15 111.901 53.2945 112.134 53.2945C112.328 53.2945 112.406 53.4889 112.406 53.5667C112.406 53.7611 109.373 55.9778 106.495 55.9778C103.578 55.9778 99.2617 54.5389 99.2617 48.6278C99.2617 43.6111 102.645 40.6167 105.873 40.6167C107.74 40.6167 109.995 41.7834 111.278 43.3C111.901 44 112.445 44.8556 112.445 45.1278C112.445 45.3223 111.94 45.4778 110.967 45.6723Z" fill="#AEAEAE"/>
<path d="M127.066 41.9004C126.289 41.9004 124.733 46.1782 121.933 52.9837C119.677 58.4282 118.083 61.3059 116.955 63.6393C116.566 64.417 116.139 64.4559 115.361 64.5726C114.311 64.7281 114.039 65.0004 113.261 65.0004C112.639 65.0004 112.289 64.8059 112.289 64.6504C112.289 64.4559 113.961 64.2226 115.166 62.7059C116.45 61.1115 119.483 56.9115 119.483 55.8615C119.483 55.4726 116.644 48.9004 114.7 44.2726C113.805 42.1337 113.572 41.9782 112.911 41.9782C112.211 41.9782 112.172 41.9393 112.172 41.6282C112.172 41.317 112.289 41.1226 112.911 41.1226C113.922 41.1226 114.155 41.2004 115.011 41.2004C116.022 41.2004 117.266 41.0837 118.394 41.0837C119.133 41.0837 119.289 41.2393 119.289 41.6282C119.289 41.9393 119.133 41.9782 118.394 41.9782C117.539 41.9782 117.344 42.1726 117.344 42.9893C117.344 44.0004 118.277 45.2448 120.416 50.7282C120.689 51.467 121.116 52.0893 121.272 52.0893C121.505 52.0893 121.739 51.5837 122.283 49.9115C123.139 47.3448 124.422 43.6504 124.422 43.1448C124.422 42.0948 124.422 41.8615 123.216 41.8615C122.127 41.8615 121.972 41.8615 121.972 41.5115C121.972 41.0448 122.089 41.0448 122.711 41.0448C123.683 41.0448 124.305 41.1226 125.277 41.1226C125.822 41.1226 126.755 40.967 127.261 40.967C127.844 40.967 128 41.0059 128 41.3948C128 41.7059 127.494 41.9004 127.066 41.9004Z" fill="#AEAEAE"/>
<path d="M20.8203 64.4558C19.6536 64.4558 19.0703 63.7947 19.0703 62.7447V59.6335H19.887V62.7835C19.887 63.3669 20.1203 63.7558 20.8203 63.7558C21.4814 63.7558 21.7536 63.3669 21.7536 62.7835V59.6335H22.5703V62.7447C22.5703 63.7947 21.987 64.4558 20.8203 64.4558Z" fill="#AEAEAE"/>
<path d="M26.5772 64.378L24.5938 61.1891H24.5549V64.378H23.7383V59.7113L24.5549 59.6335L26.4605 62.7447H26.4994V59.6335H27.3161V64.378H26.5772Z" fill="#AEAEAE"/>
<path d="M29.2991 59.6335H28.4824V64.378H29.2991V59.6335Z" fill="#AEAEAE"/>
<path d="M32.6821 64.378H31.7876L30.1543 59.6335H31.0099L31.9043 62.278C31.9043 62.278 31.9821 62.5502 32.2154 63.3669H32.2543C32.4876 62.5502 32.5654 62.278 32.5654 62.278L33.4598 59.6335H34.2765L32.6821 64.378Z" fill="#AEAEAE"/>
<path d="M38.0125 64.378H35.1348V59.6335H37.9348V60.3335H35.9514V61.6169H37.7403V62.3169H35.9514V63.678H38.0903L38.0125 64.378Z" fill="#AEAEAE"/>
<path d="M40.6575 60.3335H39.9964V61.7724H40.6964C41.2019 61.7724 41.4352 61.5002 41.4352 61.0335C41.3964 60.6058 41.2408 60.3335 40.6575 60.3335ZM41.6686 64.378L41.0075 63.0558C40.8519 62.7835 40.6964 62.5113 40.3852 62.5113H39.9964V64.4169H39.1797V59.6335H40.6964C41.7464 59.6335 42.2519 60.2169 42.2519 61.0335C42.2519 61.6169 41.9797 62.0835 41.3575 62.3169C41.513 62.3947 41.5908 62.5502 41.6297 62.628L42.5241 64.3391H41.6686V64.378Z" fill="#AEAEAE"/>
<path d="M44.7001 64.4558C44.039 64.4558 43.5334 64.1836 43.1445 63.9114L43.4945 63.2891C43.8834 63.5614 44.3501 63.7169 44.7001 63.7169C45.2445 63.7169 45.5168 63.4058 45.5168 63.0558C45.5168 62.1614 43.4168 62.4336 43.4168 60.8391C43.4168 59.9836 44.1168 59.478 44.9723 59.478C45.4779 59.478 45.9445 59.6336 46.3334 59.9058L46.0223 60.4891C45.6723 60.2947 45.3612 60.178 44.9334 60.178C44.4668 60.178 44.2334 60.4503 44.2334 60.8003C44.2334 61.8891 46.3334 61.3836 46.3334 63.0169C46.3723 63.8725 45.5945 64.4558 44.7001 64.4558Z" fill="#AEAEAE"/>
<path d="M48.1604 59.6335H47.3438V64.378H48.1604V59.6335Z" fill="#AEAEAE"/>
<path d="M52.4014 60.3335H51.1959V64.378H50.3792V60.3335H49.1348V59.6335H52.4792L52.4014 60.3335Z" fill="#AEAEAE"/>
<path d="M55.3158 62.3558V64.378H54.4991V62.3558L52.9824 59.6335H53.9158L54.538 60.9947C54.538 60.9947 54.6158 61.1502 54.888 61.6947H54.9269C55.1602 61.1502 55.238 60.9947 55.238 60.9947L55.8991 59.6335H56.7935L55.3158 62.3558Z" fill="#AEAEAE"/>
<path d="M61.6959 60.2562C60.8792 60.2562 60.4903 60.9562 60.4903 62.0062C60.4903 63.0562 60.8792 63.7562 61.6959 63.7562C62.5125 63.7562 62.9014 63.0173 62.9014 62.0062C62.9014 60.9562 62.5125 60.2562 61.6959 60.2562ZM61.6959 64.4562C60.257 64.4562 59.6348 63.3673 59.6348 62.0062C59.6348 60.5673 60.257 59.5562 61.6959 59.5562C63.1348 59.5562 63.757 60.5673 63.757 62.0062C63.757 63.3673 63.1348 64.4562 61.6959 64.4562Z" fill="#AEAEAE"/>
<path d="M65.6602 60.3335V61.6169H67.4102V62.3169H65.6602V64.378H64.8047V59.6335H67.6047V60.3335H65.6602Z" fill="#AEAEAE"/>
<path d="M72.8148 64.4562C71.3371 64.4562 70.7148 63.4839 70.7148 62.0062C70.7148 60.5673 71.4148 59.5562 72.8537 59.5562C73.4371 59.5562 73.9426 59.7506 74.4482 60.1784L74.0204 60.7228C73.6704 60.4117 73.3204 60.2562 72.8537 60.2562C71.9982 60.2562 71.5704 60.8784 71.5704 62.0062C71.5704 63.1339 71.9982 63.7562 72.8537 63.7562C73.2815 63.7562 73.7093 63.5617 74.0982 63.2117L74.5259 63.7562C74.0204 64.1839 73.4371 64.4562 72.8148 64.4562Z" fill="#AEAEAE"/>
<path d="M77.4459 61.6169C77.4459 61.6169 77.407 61.4613 77.057 60.4891C76.7459 61.4613 76.6681 61.6169 76.6681 61.6169L76.3181 62.6669H77.8348L77.4459 61.6169ZM78.4181 64.378L78.0292 63.2502H76.1237L75.7348 64.378H74.957L76.6292 59.7113L77.6015 59.6335L79.2737 64.378H78.4181Z" fill="#AEAEAE"/>
<path d="M82.7336 64.378H79.9336V59.6335H80.7503V63.678H82.8114L82.7336 64.378Z" fill="#AEAEAE"/>
<path d="M84.4456 59.6335H83.6289V64.378H84.4456V59.6335Z" fill="#AEAEAE"/>
<path d="M86.3477 60.3335V61.6169H88.0589V62.3169H86.3477V64.378H85.4922V59.6335H88.2922V60.3335H86.3477Z" fill="#AEAEAE"/>
<path d="M90.8599 60.2562C90.0433 60.2562 89.6544 60.9562 89.6544 62.0062C89.6544 63.0562 90.0433 63.7562 90.8599 63.7562C91.6766 63.7562 92.0655 63.0173 92.0655 62.0062C92.1044 60.9562 91.7155 60.2562 90.8599 60.2562ZM90.8599 64.4562C89.4211 64.4562 88.7988 63.3673 88.7988 62.0062C88.7988 60.5673 89.4211 59.5562 90.8599 59.5562C92.2988 59.5562 92.9211 60.5673 92.9211 62.0062C92.9599 63.3673 92.2988 64.4562 90.8599 64.4562Z" fill="#AEAEAE"/>
<path d="M95.1788 60.3335H94.5177V61.7724H95.2177C95.7232 61.7724 95.9565 61.5002 95.9565 61.0335C95.9177 60.6058 95.7232 60.3335 95.1788 60.3335ZM96.151 64.378L95.4899 63.0558C95.3343 62.7835 95.1788 62.5113 94.8677 62.5113H94.4788V64.4169H93.6621V59.6335H95.1788C96.2288 59.6335 96.7343 60.2169 96.7343 61.0335C96.7343 61.6169 96.4621 62.0835 95.8399 62.3169C95.9954 62.3947 96.0732 62.5502 96.1121 62.628L97.0065 64.3391H96.151V64.378Z" fill="#AEAEAE"/>
<path d="M100.542 64.378L98.5198 61.1891V64.378H97.7031V59.7113L98.4809 59.6335L100.425 62.7447H100.464V59.6335H101.281V64.378H100.542Z" fill="#AEAEAE"/>
<path d="M103.149 59.6335H102.332V64.378H103.149V59.6335Z" fill="#AEAEAE"/>
<path d="M106.299 61.6169C106.299 61.6169 106.261 61.4613 105.911 60.4891C105.599 61.4613 105.522 61.6169 105.522 61.6169L105.172 62.6669H106.688L106.299 61.6169ZM107.272 64.378L106.883 63.2502H104.977L104.588 64.378H103.811L105.483 59.7113L106.455 59.6335L108.127 64.378H107.272Z" fill="#AEAEAE"/>
</g>
<defs>
<clipPath id="clip0_2609_2974">
<rect width="112" height="34.4556" fill="white" transform="translate(16 30.5063)"/>
</clipPath>
</defs>
</svg>
