<svg width="144" height="96" viewBox="0 0 144 96" fill="none" xmlns="http://www.w3.org/2000/svg">
<path d="M73.0464 28.3972H71.3234V30.1202H73.0464V28.3972Z" fill="#AEAEAE"/>
<path d="M71.3235 26.6741H69.6005V28.3971L71.3234 28.3972L71.3235 26.6741Z" fill="#AEAEAE"/>
<path d="M76.491 31.8417H74.768V33.5647H76.491V31.8417Z" fill="#AEAEAE"/>
<path d="M78.2141 33.5648L76.491 33.5647L76.4911 35.2878H78.2141V33.5648Z" fill="#AEAEAE"/>
<path d="M69.602 26.6741H67.8789V28.3971H69.602V26.6741Z" fill="#AEAEAE"/>
<path d="M71.3234 28.3972L69.6005 28.3971V30.1202H71.3234V28.3972Z" fill="#AEAEAE"/>
<path d="M76.491 33.5647H74.768V35.2878H76.4911L76.491 33.5647Z" fill="#AEAEAE"/>
<path d="M74.7695 31.8417H73.0465V33.5647H74.7695V31.8417Z" fill="#AEAEAE"/>
<path d="M73.0464 26.6741H71.3235L71.3234 28.3972H73.0464V26.6741Z" fill="#AEAEAE"/>
<path d="M74.7695 28.3972H73.0464V30.1202H74.7695V28.3972Z" fill="#AEAEAE"/>
<path d="M78.2141 31.8417H76.491V33.5647L78.2141 33.5648V31.8417Z" fill="#AEAEAE"/>
<path d="M76.491 30.1202H74.768V31.8433H76.491V30.1202Z" fill="#AEAEAE"/>
<path d="M74.7695 26.6741H73.0464V28.3972H74.7695V26.6741Z" fill="#AEAEAE"/>
<path d="M76.491 28.3972H74.768V30.1202H76.491V28.3972Z" fill="#AEAEAE"/>
<path d="M78.2141 30.1202H76.491V31.8433H78.2141V30.1202Z" fill="#AEAEAE"/>
<path d="M76.491 26.6741H74.768V28.3972H76.491V26.6741Z" fill="#AEAEAE"/>
<path d="M78.2141 28.3972H76.491V30.1202H78.2141V28.3972Z" fill="#AEAEAE"/>
<path d="M78.2141 26.6741H76.491V28.3972H78.2141V26.6741Z" fill="#AEAEAE"/>
<path d="M73.0466 31.8433H69.6004L69.6005 30.1202V28.3971H67.8789V26.6741H66.1559V35.2878H66.1543L69.6004 38.7323V35.2878H74.7696L74.7695 33.5647H73.0465L73.0466 31.8433Z" fill="#AEAEAE"/>
<path d="M71.3212 40.4556H64.4305V33.5649L60.9844 30.1204V43.9001H74.7657L71.3212 40.4556Z" fill="#AEAEAE"/>
<path d="M73.0422 24.9509H79.9329V31.8416L83.379 35.2861V21.5063H69.5977L73.0422 24.9509Z" fill="#AEAEAE"/>
<path d="M23.8646 60.8861V62.5469H16V52.8019H17.8392V60.8861H23.8646Z" fill="#AEAEAE"/>
<path d="M27.0768 62.5469V52.8019H34.9689V54.3941H28.916V56.6176H32.5258V58.2234H28.916V60.9136H35.5179V62.5469H27.0768Z" fill="#AEAEAE"/>
<path d="M47.9112 52.8019V62.5881H46.4701L40.5544 55.1215V62.5469H38.7701V52.8019H40.9113L46.1407 59.4862V52.8019H47.9112Z" fill="#AEAEAE"/>
<path d="M56.5624 62.7116C55.0892 62.7116 53.8676 62.2358 52.8977 61.2842C51.9369 60.3234 51.4565 59.1201 51.4565 57.6744C51.4565 56.2104 51.9461 55.0071 52.9252 54.0646C53.9042 53.113 55.1166 52.6372 56.5624 52.6372C58.0356 52.6372 59.2525 53.1176 60.2133 54.0784C61.1832 55.03 61.6682 56.2287 61.6682 57.6744C61.6682 59.1384 61.1787 60.3463 60.1996 61.2979C59.2205 62.2404 58.0081 62.7116 56.5624 62.7116ZM56.5624 61.0371C57.514 61.0371 58.2872 60.7169 58.882 60.0763C59.4859 59.4267 59.7878 58.626 59.7878 57.6744C59.7878 56.7136 59.4859 55.913 58.882 55.2725C58.278 54.632 57.5048 54.3117 56.5624 54.3117C55.6108 54.3117 54.8376 54.6365 54.2428 55.2862C53.648 55.9267 53.3506 56.7228 53.3506 57.6744C53.3506 58.6352 53.648 59.4358 54.2428 60.0763C54.8467 60.7169 55.6199 61.0371 56.5624 61.0371Z" fill="#AEAEAE"/>
<path d="M72.2624 62.5469L69.1467 58.896L65.9899 62.5469H63.8213L68.0487 57.6195L63.9311 52.8019H66.3467L69.2428 56.2332L72.18 52.8019H74.4035L70.3271 57.5234L74.5819 62.5469H72.2624Z" fill="#AEAEAE"/>
<path d="M82.5143 62.5469V52.8019H87.8947C88.9469 52.8019 89.775 53.0444 90.379 53.5294C90.992 54.0052 91.2986 54.7555 91.2986 55.7803C91.2986 56.7868 90.9874 57.5463 90.3652 58.0587C89.7522 58.562 88.9286 58.8136 87.8947 58.8136H84.3535V62.5469H82.5143ZM87.7986 54.449H84.3535V57.1666H87.7986C88.2744 57.1666 88.6587 57.0568 88.9515 56.8372C89.2535 56.6084 89.4045 56.2653 89.4045 55.8078C89.4045 54.9019 88.8692 54.449 87.7986 54.449Z" fill="#AEAEAE"/>
<path d="M101.247 62.5469L100.355 60.543H95.4415L94.5493 62.5469H92.6964L97.0748 52.7607H98.8179L103.21 62.5469H101.247ZM96.1415 58.9509H99.6551L97.8983 55.0117L96.1415 58.9509Z" fill="#AEAEAE"/>
<path d="M106.276 62.5469V52.8019H111.725C112.759 52.8019 113.574 53.0352 114.168 53.5019C114.763 53.9686 115.061 54.7052 115.061 55.7117C115.061 56.3705 114.896 56.9287 114.566 57.3862C114.237 57.8345 113.761 58.1548 113.139 58.347L115.431 62.5469H113.482L111.272 58.5391H108.116V62.5469H106.276ZM111.574 54.4352H108.116V56.9332H111.574C112.636 56.9332 113.166 56.5261 113.166 55.7117C113.166 54.8607 112.636 54.4352 111.574 54.4352Z" fill="#AEAEAE"/>
<path d="M125.747 62.5469L120.586 58.0862V62.5469H118.747V52.8019H120.586V57.1803L125.61 52.8019H128.08L122.631 57.5372L128.314 62.5469H125.747Z" fill="#AEAEAE"/>
<path d="M43.294 69.2994C43.1487 69.2994 43.0107 69.3091 42.8799 69.3284C42.754 69.3478 42.6232 69.3841 42.4876 69.4374C42.352 69.4858 42.2431 69.5633 42.1607 69.6699C42.0832 69.7764 42.0445 69.9072 42.0445 70.0622C42.0445 70.4787 42.3738 70.7257 43.0325 70.8032L44.0423 70.9194C44.5556 70.9727 44.9649 71.1228 45.27 71.3698C45.58 71.6168 45.7349 71.9776 45.7349 72.4523C45.7349 72.7283 45.672 72.9705 45.5461 73.1787C45.4201 73.387 45.2506 73.5492 45.0375 73.6655C44.8293 73.7768 44.6065 73.8592 44.3692 73.9125C44.1367 73.9657 43.8921 73.9924 43.6355 73.9924C43.0252 73.9924 42.4997 73.8664 42.059 73.6146C41.6231 73.3579 41.3229 72.9608 41.1582 72.4232H41.9137C42.1946 73.0383 42.7685 73.3458 43.6355 73.3458C43.7856 73.3458 43.9333 73.3337 44.0786 73.3095C44.2287 73.2804 44.3789 73.2368 44.529 73.1787C44.6791 73.1206 44.8002 73.0334 44.8922 72.9172C44.9843 72.7961 45.0303 72.6532 45.0303 72.4886C45.0303 72.3239 45.0036 72.1883 44.9504 72.0818C44.8971 71.9704 44.8123 71.8856 44.6961 71.8275C44.5847 71.7645 44.4782 71.7209 44.3765 71.6967C44.2796 71.6677 44.1488 71.641 43.9842 71.6168L42.9671 71.5078C42.4973 71.4643 42.1075 71.3214 41.7975 71.0792C41.4924 70.8371 41.3398 70.4981 41.3398 70.0622C41.3398 69.7328 41.4439 69.4592 41.6522 69.2413C41.8653 69.0185 42.1123 68.8659 42.3932 68.7836C42.6741 68.6964 42.9744 68.6528 43.294 68.6528C43.8607 68.6528 44.3547 68.7642 44.776 68.987C45.1974 69.2049 45.4758 69.5609 45.6114 70.0549H44.8777C44.6259 69.5512 44.098 69.2994 43.294 69.2994Z" fill="#AEAEAE"/>
<path d="M51.0087 73.9851C50.2387 73.9851 49.6018 73.7308 49.0981 73.2223C48.5945 72.7138 48.3426 72.0793 48.3426 71.319C48.3426 70.5538 48.5969 69.9193 49.1054 69.4156C49.6188 68.9071 50.2532 68.6528 51.0087 68.6528C51.774 68.6528 52.4084 68.9095 52.9121 69.4229C53.4206 69.9314 53.6749 70.5634 53.6749 71.319C53.6749 72.0793 53.4182 72.7138 52.9048 73.2223C52.3915 73.7308 51.7594 73.9851 51.0087 73.9851ZM51.0087 73.3313C51.5754 73.3313 52.0403 73.1376 52.4036 72.7501C52.7668 72.3578 52.9484 71.8808 52.9484 71.319C52.9484 70.7475 52.7644 70.2704 52.3963 69.8878C52.0282 69.5004 51.5657 69.3067 51.0087 69.3067C50.4373 69.3067 49.9699 69.5004 49.6067 69.8878C49.2483 70.2753 49.0691 70.7523 49.0691 71.319C49.0691 71.8953 49.2507 72.3748 49.6139 72.7574C49.982 73.14 50.4469 73.3313 51.0087 73.3313Z" fill="#AEAEAE"/>
<path d="M60.6131 73.2368V73.8979H56.574V68.74H57.2787V73.2368H60.6131Z" fill="#AEAEAE"/>
<path d="M65.3621 73.3095C65.8561 73.3095 66.2412 73.1569 66.5172 72.8518C66.7981 72.5467 66.9386 72.1496 66.9386 71.6604V68.74H67.636V71.7185C67.636 72.4062 67.4253 72.9559 67.004 73.3676C66.5874 73.7793 66.0402 73.9851 65.3621 73.9851C64.6502 73.9851 64.0908 73.7817 63.684 73.3749C63.282 72.968 63.081 72.4159 63.081 71.7185V68.74H63.7857V71.6604C63.7857 72.1641 63.9262 72.5661 64.2071 72.8663C64.488 73.1618 64.873 73.3095 65.3621 73.3095Z" fill="#AEAEAE"/>
<path d="M70.3008 69.3938V68.74H75.2916V69.3938H73.1486V73.8979H72.4439V69.3938H70.3008Z" fill="#AEAEAE"/>
<path d="M77.9839 73.8979V68.74H78.6886V73.8979H77.9839Z" fill="#AEAEAE"/>
<path d="M84.263 73.9851C83.493 73.9851 82.8561 73.7308 82.3524 73.2223C81.8488 72.7138 81.5969 72.0793 81.5969 71.319C81.5969 70.5538 81.8512 69.9193 82.3597 69.4156C82.8731 68.9071 83.5075 68.6528 84.263 68.6528C85.0283 68.6528 85.6627 68.9095 86.1664 69.4229C86.6749 69.9314 86.9292 70.5634 86.9292 71.319C86.9292 72.0793 86.6725 72.7138 86.1591 73.2223C85.6458 73.7308 85.0137 73.9851 84.263 73.9851ZM84.263 73.3313C84.8297 73.3313 85.2946 73.1376 85.6579 72.7501C86.0211 72.3578 86.2027 71.8808 86.2027 71.319C86.2027 70.7475 86.0187 70.2704 85.6506 69.8878C85.2825 69.5004 84.82 69.3067 84.263 69.3067C83.6916 69.3067 83.2242 69.5004 82.861 69.8878C82.5026 70.2753 82.3234 70.7523 82.3234 71.319C82.3234 71.8953 82.505 72.3748 82.8682 72.7574C83.2363 73.14 83.7012 73.3313 84.263 73.3313Z" fill="#AEAEAE"/>
<path d="M94.4777 68.74V73.9342H93.9764L90.5039 69.5682V73.8979H89.8283V68.74H90.6855L93.8021 72.692V68.74H94.4777Z" fill="#AEAEAE"/>
<path d="M99.3911 69.2994C99.2458 69.2994 99.1078 69.3091 98.9771 69.3284C98.8511 69.3478 98.7204 69.3841 98.5848 69.4374C98.4492 69.4858 98.3402 69.5633 98.2578 69.6699C98.1804 69.7764 98.1416 69.9072 98.1416 70.0622C98.1416 70.4787 98.4709 70.7257 99.1296 70.8032L100.139 70.9194C100.653 70.9727 101.062 71.1228 101.367 71.3698C101.677 71.6168 101.832 71.9776 101.832 72.4523C101.832 72.7283 101.769 72.9705 101.643 73.1787C101.517 73.387 101.348 73.5492 101.135 73.6655C100.926 73.7768 100.704 73.8592 100.466 73.9125C100.234 73.9657 99.9893 73.9924 99.7326 73.9924C99.1223 73.9924 98.5969 73.8664 98.1561 73.6146C97.7203 73.3579 97.42 72.9608 97.2553 72.4232H98.0109C98.2918 73.0383 98.8657 73.3458 99.7326 73.3458C99.8827 73.3458 100.03 73.3337 100.176 73.3095C100.326 73.2804 100.476 73.2368 100.626 73.1787C100.776 73.1206 100.897 73.0334 100.989 72.9172C101.081 72.7961 101.127 72.6532 101.127 72.4886C101.127 72.3239 101.101 72.1883 101.047 72.0818C100.994 71.9704 100.909 71.8856 100.793 71.8275C100.682 71.7645 100.575 71.7209 100.474 71.6967C100.377 71.6677 100.246 71.641 100.081 71.6168L99.0642 71.5078C98.5944 71.4643 98.2046 71.3214 97.8946 71.0792C97.5895 70.8371 97.4369 70.4981 97.4369 70.0622C97.4369 69.7328 97.5411 69.4592 97.7493 69.2413C97.9624 69.0185 98.2094 68.8659 98.4903 68.7836C98.7712 68.6964 99.0715 68.6528 99.3911 68.6528C99.9578 68.6528 100.452 68.7642 100.873 68.987C101.294 69.2049 101.573 69.5609 101.709 70.0549H100.975C100.723 69.5512 100.195 69.2994 99.3911 69.2994Z" fill="#AEAEAE"/>
</svg>
