<svg width="144" height="96" viewBox="0 0 144 96" fill="none" xmlns="http://www.w3.org/2000/svg">
<g clip-path="url(#clip0_2609_2946)">
<path d="M18.5156 40.3061L21.9332 40.3061L25.2488 47.5154L21.9332 54.7246L18.5857 54.7246L21.8148 47.5154L18.5156 40.3061Z" fill="#AEAEAE"/>
<path d="M21.8828 54.7246H18.4652L15.1497 47.5154L18.4652 40.3062H21.8127L18.5836 47.5154L21.8828 54.7246Z" fill="#AEAEAE"/>
<path d="M11.8789 54.7246H8.40541L5.08984 47.5154L8.287 40.5438C8.36594 40.3854 8.52382 40.3062 8.68171 40.3062H11.8789L8.56329 47.5154L11.8789 54.7246Z" fill="#AEAEAE"/>
<path d="M6.78902 54.7246H3.31557L0 47.5154L3.31557 40.3062H6.78902L3.47345 47.5154L6.78902 54.7246Z" fill="#AEAEAE"/>
<path d="M16.9335 54.7246H13.4601L10.1445 47.5154L13.3417 40.5438C13.4206 40.3854 13.5785 40.3062 13.7364 40.3062H16.9335L13.618 47.5154L16.9335 54.7246Z" fill="#AEAEAE"/>
<path d="M4.53874 40.3062H15.1959V43.1185H4.38086L4.53874 40.3062Z" fill="#AEAEAE"/>
<path d="M42.2843 54.6937C42.2843 54.6937 42.4619 44.6627 42.5211 41.7809L40.271 54.6937H37.9024L35.5733 41.7809C35.5733 41.7809 35.7114 51.2553 35.7706 54.6937H33.2441V39.9255H37.4287L39.0472 50.5092L40.7052 39.9255H44.8305V54.6937H42.2843Z" fill="#AEAEAE"/>
<path d="M50.6231 54.6937C50.4231 54.4427 50.3245 54.1257 50.3467 53.8055C49.952 54.2398 49.498 54.9109 48.3137 54.9109C46.5767 54.9109 46.3398 53.5884 46.3398 52.2264V51.5356C46.3398 50.0158 46.7346 49.5815 47.8794 49.0091L50.327 47.7853V47.0155C50.327 46.1865 50.0704 45.9891 49.498 45.9891C48.7677 45.9891 48.7084 46.3839 48.7084 47.3314V47.7064H46.557V46.5616C46.557 46.0878 46.6557 44.3706 49.6756 44.3706C49.8927 44.3706 52.6758 44.3706 52.6758 46.601V54.6937H50.6231ZM50.2875 49.6013L49.1427 50.3513C48.669 50.6671 48.6097 51.0224 48.6097 52.0291C48.6097 52.8186 48.7479 53.1344 49.1624 53.1344C49.3993 53.1344 49.7151 53.0555 50.2875 52.562V49.6013Z" fill="#AEAEAE"/>
<path d="M58.9549 46.7393C58.7075 46.6266 58.4372 46.5725 58.1654 46.5814C56.7837 46.5814 56.6416 47.7065 56.6416 48.7329V54.6939H54.3125V44.5879H56.6614V45.8709C56.8283 45.4331 57.1266 45.0577 57.5153 44.7962C57.904 44.5347 58.3642 44.3999 58.8326 44.4102H58.9549V46.7393Z" fill="#AEAEAE"/>
<path d="M62.5633 51.9502C62.5633 52.7397 62.8396 53.016 63.6292 53.016C63.7615 53.0127 63.8935 52.9995 64.0239 52.9766V54.674C63.6353 54.7607 63.2377 54.8005 62.8396 54.7925C60.8658 54.7925 60.2736 54.2201 60.2736 52.7002L60.2539 42.2942H62.583V44.5878H64.0437V46.1471H62.583L62.5633 51.9502Z" fill="#AEAEAE"/>
<path d="M65.4336 54.6939V44.5879H67.8022V54.6939H65.4336Z" fill="#AEAEAE"/>
<path d="M73.704 54.6938V47.2525C73.704 46.4629 73.5461 46.0484 72.8948 46.0484C72.2434 46.0484 71.8881 46.4432 71.8881 47.4104V54.6938H69.5195V44.5878H71.8881V45.3181C72.5 44.726 72.9935 44.3904 73.9014 44.3904C74.1765 44.3694 74.4529 44.4071 74.7123 44.501C74.9717 44.5949 75.2081 44.7429 75.406 44.9352C75.6038 45.1274 75.7585 45.3595 75.8599 45.6161C75.9612 45.8727 76.0068 46.1479 75.9937 46.4235V54.7136L73.704 54.6938Z" fill="#AEAEAE"/>
<path d="M67.8022 39.9255H65.4336V42.2941H67.8022V39.9255Z" fill="#AEAEAE"/>
<path d="M89.4938 49.6052V51.9145C89.4938 53.7502 88.5306 55.1319 85.6843 55.1319C84.6776 55.1319 81.8945 54.9542 81.8945 52.1909V43.2573C81.8945 41.0861 82.9999 39.8821 85.783 39.8821C87.9739 39.8821 89.4938 40.7703 89.4938 42.6652V45.2509H86.9673V43.4942C86.9673 42.4283 86.7896 41.8559 85.6448 41.8559C84.6579 41.8559 84.4605 42.4678 84.4605 43.3758V51.5593C84.4605 52.4672 84.6579 53.1383 85.7238 53.1383C86.8686 53.1383 86.9673 52.487 86.9673 51.4211V49.6052H89.4938Z" fill="#AEAEAE"/>
<path d="M97.2498 52.0881C97.2498 54.1211 95.809 54.8909 93.993 54.8909C92.1771 54.8909 90.9336 54.0619 90.9336 51.8512V47.3114C90.9336 45.2981 92.0981 44.3901 94.1312 44.3901C95.6708 44.3901 97.2498 44.9428 97.2498 47.1535V52.0881ZM93.2825 52.2262C93.2825 52.4828 93.2825 53.2724 94.0917 53.2724C94.901 53.2724 94.9207 52.5815 94.9207 52.2065V47.0745C94.9207 46.5021 94.8418 45.8508 94.1312 45.8508C93.2824 45.8508 93.2825 46.6403 93.2825 47.0943V52.2262Z" fill="#AEAEAE"/>
<path d="M102.975 54.6938V47.2525C102.975 46.4629 102.817 46.0484 102.166 46.0484C101.455 46.0484 101.159 46.4432 101.159 47.4104V54.6938H98.8105V44.5878H101.179V45.3181C101.791 44.726 102.284 44.3904 103.192 44.3904C103.468 44.3694 103.744 44.4071 104.003 44.501C104.263 44.5949 104.499 44.7429 104.697 44.9352C104.895 45.1274 105.05 45.3595 105.151 45.6161C105.252 45.8727 105.298 46.1479 105.285 46.4235V54.7136L102.975 54.6938Z" fill="#AEAEAE"/>
<path d="M121.818 39.9255H119.449V42.2941H121.818V39.9255Z" fill="#AEAEAE"/>
<path d="M121.818 44.5876H119.449V54.6937H121.818V44.5876Z" fill="#AEAEAE"/>
<path d="M127.622 54.6938V47.2525C127.622 46.4629 127.464 46.0484 126.813 46.0484C126.102 46.0484 125.806 46.4432 125.806 47.4104V54.6938H123.457V44.5878H125.826V45.3181C126.438 44.726 126.931 44.3904 127.839 44.3904C128.114 44.3694 128.39 44.4071 128.65 44.501C128.909 44.5949 129.146 44.7429 129.343 44.9352C129.541 45.1274 129.696 45.3595 129.797 45.6161C129.899 45.8727 129.944 46.1479 129.931 46.4235V54.7136L127.622 54.6938Z" fill="#AEAEAE"/>
<path d="M133.831 50.1459V51.9224C133.831 52.6527 134.088 53.0475 134.7 53.0475C135.469 53.0475 135.529 52.3566 135.529 51.6855V51.35H137.818V52.179C137.818 54.1133 136.575 54.8831 134.719 54.8831C132.114 54.8831 131.502 53.2646 131.502 51.6263V47.3826C131.502 45.5074 132.706 44.4021 134.739 44.4021C136.673 44.4021 137.858 45.468 137.858 47.1062V50.1459H133.831ZM135.509 47.2444C135.509 47.0273 135.509 46.2378 134.719 46.2378C134.592 46.2347 134.466 46.2599 134.35 46.3115C134.234 46.363 134.13 46.4397 134.047 46.5359C133.964 46.6322 133.904 46.7456 133.87 46.8681C133.836 46.9906 133.829 47.1191 133.851 47.2444V48.4879H135.529L135.509 47.2444Z" fill="#AEAEAE"/>
<path d="M143.998 46.7393C143.75 46.6266 143.48 46.5725 143.208 46.5814C141.827 46.5814 141.688 47.7065 141.688 48.7329V54.6939H139.359V44.5879H141.708V45.8709C141.875 45.4331 142.173 45.0577 142.562 44.7962C142.951 44.5347 143.411 44.3999 143.879 44.4102H143.998V46.7393Z" fill="#AEAEAE"/>
<path d="M108.862 51.9499C108.862 52.7395 109.139 53.0158 109.928 53.0158C110.061 53.0124 110.193 52.9992 110.323 52.9763V54.6738C109.928 54.762 109.524 54.8018 109.119 54.7922C107.165 54.7922 106.553 54.2198 106.553 52.7L106.533 42.2939H108.862V44.5875H110.323V46.1469H108.862V51.9499Z" fill="#AEAEAE"/>
<path d="M115.756 54.6937C115.556 54.4427 115.457 54.1257 115.48 53.8055C115.065 54.2398 114.631 54.9109 113.447 54.9109C111.71 54.9109 111.453 53.5884 111.453 52.2264V51.5356C111.453 50.0158 111.848 49.5815 112.993 49.0091L115.44 47.7853V47.0155C115.44 46.1865 115.184 45.9891 114.611 45.9891C113.881 45.9891 113.822 46.3839 113.822 47.3314V47.7064H111.67V46.5616C111.67 46.0878 111.769 44.3706 114.789 44.3706C115.006 44.3706 117.789 44.3706 117.789 46.601V54.6937H115.756ZM115.421 49.6013L114.276 50.3513C113.802 50.6671 113.743 51.0224 113.743 52.0291C113.743 52.8186 113.881 53.1344 114.295 53.1344C114.532 53.1344 114.848 53.0555 115.421 52.562V49.6013Z" fill="#AEAEAE"/>
</g>
<defs>
<clipPath id="clip0_2609_2946">
<rect width="144" height="96" fill="white"/>
</clipPath>
</defs>
</svg>
