<svg width="144" height="96" viewBox="0 0 144 96" fill="none" xmlns="http://www.w3.org/2000/svg">
<path d="M71.4625 57.2868H74.4419V38.3369H71.4625V57.2868ZM59.1683 38.3369H62.1477V57.2868H59.1683V49.259H46.7608V57.2868H43.7805V38.3369H46.7608V46.3648H59.171L59.1683 38.3369ZM83.7585 38.3369V57.2868H101.384V54.3944H86.7314V49.259H98.8608V46.3665H86.7314V41.2285H101.375V38.3369H83.7567H83.7585ZM113.48 41.2285V46.3648H125.609V49.2572H113.48V57.2851H110.5V38.3352H128.125V41.2285H113.48ZM33.5558 50.9468C32.94 52.2265 31.9613 53.3092 30.7341 54.0684C29.507 54.8275 28.0824 55.2314 26.6272 55.2329C24.6008 55.2298 22.6584 54.4473 21.2255 53.0566C19.7926 51.6659 18.9862 49.7806 18.9831 47.8139C18.9865 45.8472 19.7929 43.9617 21.2257 42.5711C22.6586 41.1804 24.6009 40.3977 26.6272 40.3944C28.0829 40.3962 29.5079 40.8007 30.7351 41.5607C31.9622 42.3206 32.9407 43.4048 33.5558 44.6853L36.2561 43.4632C35.4003 41.6848 34.04 40.1802 32.3347 39.1252C30.6293 38.0702 28.6495 37.5085 26.6272 37.5063C23.811 37.5092 21.1109 38.5956 19.1188 40.5275C17.1267 42.4595 16.0051 45.0797 16 47.813C16.0029 50.5477 17.1235 53.1695 19.1159 55.1032C21.1082 57.0369 23.8096 58.1242 26.6272 58.127C28.6495 58.1249 30.6293 57.5636 32.3347 56.5086C34.04 55.4536 35.4003 53.949 36.2561 52.1706L33.5558 50.9468Z" fill="#AEAEAE"/>
</svg>
