<svg width="144" height="96" viewBox="0 0 144 96" fill="none" xmlns="http://www.w3.org/2000/svg">
<g clip-path="url(#clip0_2609_3057)">
<path d="M28.9793 53.1709C28.9482 53.1217 28.9357 53.0631 28.9438 53.0055C28.952 52.9479 28.9804 52.8951 29.024 52.8566L30.4184 51.5962C30.5309 51.5068 30.6434 51.5068 30.7069 51.5962C31.3587 52.3172 32.4618 52.7657 33.5636 52.7657C35.0056 52.7657 35.8579 51.9783 35.8579 51.1679C35.8579 50.5608 35.4527 50.245 34.4403 50.1585L33.3155 50.046C31.4481 49.8657 30.4805 48.8534 30.4805 47.4142C30.4805 44.8719 32.5282 43.5207 35.095 43.5207C36.6698 43.5207 38.0642 44.1278 38.83 44.8474C38.8679 44.8909 38.8888 44.9468 38.8888 45.0045C38.8888 45.0623 38.8679 45.1182 38.83 45.1617L37.5927 46.3759C37.5751 46.3996 37.5529 46.4196 37.5275 46.4347C37.5022 46.4498 37.474 46.4597 37.4448 46.4638C37.4156 46.468 37.3858 46.4663 37.3573 46.4589C37.3287 46.4515 37.3018 46.4385 37.2783 46.4206C36.5528 45.8713 35.6691 45.5713 34.759 45.5655C33.5665 45.5655 32.8469 46.2404 32.8469 46.9831C32.8469 47.5224 33.1353 47.8382 34.2889 47.9507L35.3907 48.0632C37.3706 48.265 38.2474 49.2327 38.2474 50.6502C38.2474 53.1926 36.3583 54.8567 33.2535 54.8567C31.1611 54.8581 29.6758 53.9799 28.9793 53.1709ZM40.3167 54.613C40.2874 54.6162 40.2577 54.6124 40.2301 54.6018C40.2025 54.5913 40.1778 54.5743 40.1581 54.5523C40.1383 54.5303 40.1241 54.504 40.1166 54.4754C40.1091 54.4468 40.1085 54.4169 40.1148 54.388L41.9592 43.9951C41.9644 43.9331 41.9928 43.8754 42.0389 43.8337C42.0849 43.7919 42.1451 43.7692 42.2073 43.7701H44.1685C44.197 43.7672 44.2258 43.7715 44.2522 43.7826C44.2787 43.7937 44.3019 43.8112 44.3198 43.8336C44.3378 43.8559 44.3498 43.8824 44.3549 43.9107C44.3599 43.9389 44.3578 43.9679 44.3487 43.9951L42.5043 54.388C42.4813 54.5236 42.4149 54.613 42.2794 54.613H40.3167ZM52.0378 54.613C51.9677 54.6166 51.8984 54.5964 51.8412 54.5555C51.7841 54.5146 51.7426 54.4556 51.7234 54.388L50.1242 50.9429H50.1011L47.3122 54.3851C47.1766 54.5423 47.0872 54.6101 46.93 54.6101H44.7251C44.5448 54.6101 44.5001 54.4976 44.5896 54.3851L49.0888 48.963L46.7036 43.9908C46.6589 43.8783 46.7036 43.7658 46.8839 43.7658H48.9532C49.0239 43.7569 49.0956 43.7719 49.1568 43.8085C49.218 43.8451 49.2651 43.9012 49.2907 43.9677L50.6577 47.0061H50.6808L53.1323 43.9691C53.1708 43.9081 53.2239 43.8576 53.2869 43.8224C53.3499 43.7871 53.4207 43.7682 53.4928 43.7673H55.6747C55.8318 43.7673 55.8765 43.8797 55.7871 43.9922L51.6931 48.9644L54.2355 54.3866C54.2802 54.4991 54.2355 54.6115 54.0336 54.6115L52.0378 54.613ZM59.6634 54.6577C57.8868 54.6577 57.2335 54.0059 57.594 51.9178L58.9885 44.6512C59.0116 44.5618 58.9654 44.5157 58.876 44.5157H57.6157C57.5871 44.5186 57.5584 44.5143 57.5319 44.5033C57.5055 44.4922 57.4822 44.4747 57.4643 44.4523C57.4464 44.4299 57.4343 44.4034 57.4293 44.3752C57.4242 44.347 57.4263 44.3179 57.4354 44.2907L57.4585 44.1782C57.4647 44.1128 57.4965 44.0524 57.547 44.0103C57.5975 43.9682 57.6626 43.9477 57.7282 43.9533H58.9885C59.0078 43.9551 59.0272 43.9529 59.0457 43.947C59.0641 43.9411 59.0812 43.9315 59.0959 43.9189C59.1106 43.9062 59.1225 43.8908 59.1311 43.8734C59.1396 43.856 59.1446 43.8371 59.1457 43.8177L59.685 40.6683C59.6901 40.6063 59.7186 40.5486 59.7646 40.5069C59.8107 40.4651 59.8709 40.4424 59.9331 40.4433H60.1133C60.1417 40.4408 60.1703 40.4453 60.1966 40.4565C60.2228 40.4677 60.2459 40.4852 60.2638 40.5075C60.2816 40.5297 60.2937 40.5561 60.2989 40.5841C60.3041 40.6122 60.3022 40.6411 60.2936 40.6683L59.7542 43.8177C59.7312 43.9071 59.7773 43.9533 59.8667 43.9533H62.0039C62.0323 43.9507 62.0609 43.9553 62.0871 43.9665C62.1134 43.9777 62.1365 43.9952 62.1543 44.0174C62.1721 44.0397 62.1842 44.066 62.1894 44.0941C62.1946 44.1222 62.1928 44.1511 62.1841 44.1782L62.161 44.2907C62.1548 44.3562 62.123 44.4166 62.0725 44.4587C62.022 44.5008 61.9569 44.5213 61.8914 44.5157H59.7528C59.7335 44.5139 59.7141 44.516 59.6956 44.522C59.6772 44.5279 59.6601 44.5374 59.6454 44.5501C59.6307 44.5627 59.6188 44.5782 59.6102 44.5956C59.6017 44.613 59.5967 44.6319 59.5956 44.6512L58.2228 51.8284C57.8853 53.6728 58.2905 54.1011 59.7744 54.1011H60.1349C60.1635 54.0981 60.1923 54.1024 60.2187 54.1135C60.2451 54.1246 60.2684 54.1421 60.2863 54.1645C60.3042 54.1868 60.3163 54.2133 60.3213 54.2416C60.3264 54.2698 60.3243 54.2988 60.3152 54.326L60.2921 54.4385C60.2859 54.504 60.2541 54.5643 60.2036 54.6065C60.1531 54.6486 60.088 54.6691 60.0225 54.6635L59.6634 54.6577ZM70.326 54.613C70.2135 54.613 70.1457 54.5236 70.1688 54.388L71.3383 47.9983C71.7882 45.3881 71.0009 44.2864 68.9531 44.2864C67.3553 44.2864 65.5556 45.5684 65.1966 47.6161L64.004 54.3938C63.9989 54.4557 63.9704 54.5134 63.9244 54.5552C63.8783 54.597 63.8181 54.6197 63.756 54.6188H63.5541C63.4416 54.6188 63.3738 54.5293 63.3969 54.3938L66.007 39.5406C66.0121 39.4786 66.0406 39.4209 66.0866 39.3792C66.1327 39.3374 66.1929 39.3147 66.255 39.3156H66.4353C66.4637 39.3131 66.4923 39.3176 66.5186 39.3288C66.5448 39.34 66.5679 39.3575 66.5857 39.3798C66.6036 39.402 66.6156 39.4284 66.6208 39.4564C66.626 39.4845 66.6242 39.5134 66.6156 39.5406L65.5585 45.6145H65.5816C65.954 45.0295 66.4693 44.549 67.0789 44.2182C67.6884 43.8875 68.3721 43.7174 69.0656 43.724C71.383 43.724 72.4631 45.0968 71.9685 47.8411L70.7759 54.388C70.7708 54.45 70.7423 54.5077 70.6963 54.5494C70.6502 54.5912 70.59 54.6139 70.5279 54.613H70.326ZM75.1843 54.613C75.1557 54.6159 75.127 54.6116 75.1005 54.6005C75.0741 54.5895 75.0508 54.5719 75.0329 54.5496C75.015 54.5272 75.0029 54.5007 74.9979 54.4725C74.9928 54.4443 74.9949 54.4152 75.004 54.388L76.8037 44.1739C76.8088 44.112 76.8373 44.0543 76.8833 44.0125C76.9294 43.9707 76.9896 43.948 77.0517 43.949H77.232C77.2605 43.946 77.2893 43.9503 77.3157 43.9614C77.3422 43.9725 77.3654 43.99 77.3834 44.0124C77.4013 44.0347 77.4133 44.0612 77.4184 44.0895C77.4234 44.1177 77.4213 44.1467 77.4123 44.1739L77.1426 45.7429H77.1657C77.4221 45.1302 77.858 44.6094 78.416 44.249C78.9741 43.8887 79.628 43.7057 80.292 43.724C80.9958 43.718 81.6798 43.9566 82.2273 44.3989C82.2951 44.4667 82.2951 44.5791 82.2042 44.6873L82.0917 44.8228C82.0481 44.8608 81.9923 44.8817 81.9345 44.8817C81.8768 44.8817 81.8209 44.8608 81.7774 44.8228C81.3104 44.472 80.742 44.2827 80.1579 44.2835C78.1563 44.2835 77.0301 46.3759 76.671 48.4006L75.6053 54.3851C75.6002 54.4471 75.5718 54.5048 75.5257 54.5466C75.4797 54.5883 75.4195 54.611 75.3573 54.6101L75.1843 54.613ZM82.8272 51.4188C82.8272 49.7547 83.1646 47.8411 83.8626 46.4019C84.6946 44.6714 86.1569 43.7254 87.9349 43.7254C89.8024 43.7254 91.0844 44.8791 91.0844 47.1229C91.0787 47.773 91.014 48.4212 90.8912 49.0596C90.8842 49.1248 90.8522 49.1847 90.8019 49.2267C90.7516 49.2687 90.6869 49.2894 90.6215 49.2846H83.7789C83.7376 49.2816 83.6965 49.2937 83.6634 49.3186C83.6303 49.3435 83.6073 49.3796 83.5987 49.4201C83.4733 50.0796 83.4206 50.7508 83.4415 51.4217C83.4415 53.1522 84.2966 54.2784 86.1641 54.2784C87.6062 54.2784 88.7295 53.5805 89.5385 52.6806C89.651 52.5681 89.7635 52.5451 89.8529 52.6128L89.9884 52.7253C90.0104 52.7461 90.0274 52.7714 90.0383 52.7995C90.0493 52.8277 90.0538 52.8579 90.0516 52.888C90.0494 52.9181 90.0405 52.9473 90.0256 52.9736C90.0107 52.9998 89.9901 53.0224 89.9654 53.0397C89.4976 53.6061 88.9097 54.0615 88.2443 54.3727C87.5789 54.684 86.8526 54.8434 86.118 54.8394C83.9808 54.8351 82.8329 53.5761 82.8329 51.4159L82.8272 51.4188ZM90.2062 48.7193C90.2255 48.7211 90.2449 48.7189 90.2634 48.713C90.2818 48.7071 90.2989 48.6975 90.3136 48.6849C90.3282 48.6722 90.3402 48.6568 90.3488 48.6394C90.3573 48.622 90.3623 48.6031 90.3634 48.5837C90.4478 48.1309 90.4932 47.6715 90.4989 47.2109C90.4989 45.2757 89.576 44.2864 87.8888 44.2864C86.3818 44.2864 85.1489 45.0968 84.4019 46.6254C84.1185 47.2518 83.9071 47.9083 83.7717 48.5823C83.7487 48.6717 83.7948 48.7178 83.8842 48.7178L90.2062 48.7193ZM93.3787 51.4188C93.3787 49.7547 93.7162 47.8411 94.4141 46.4019C95.2462 44.6714 96.7084 43.7254 98.4865 43.7254C100.354 43.7254 101.636 44.8791 101.636 47.1229C101.627 47.7728 101.56 48.4205 101.434 49.0582C101.427 49.1233 101.395 49.1833 101.345 49.2253C101.294 49.2672 101.23 49.288 101.164 49.2831H94.329C94.2877 49.2801 94.2466 49.2922 94.2135 49.3171C94.1804 49.3421 94.1574 49.3781 94.1488 49.4187C94.0233 50.0781 93.9706 50.7493 93.9916 51.4203C93.9916 53.1507 94.8467 54.277 96.7142 54.277C98.1563 54.277 99.2796 53.579 100.089 52.6792C100.201 52.5667 100.314 52.5436 100.403 52.6114L100.539 52.7239C100.56 52.7446 100.578 52.77 100.588 52.7981C100.599 52.8262 100.604 52.8564 100.602 52.8865C100.599 52.9166 100.591 52.9459 100.576 52.9721C100.561 52.9984 100.54 53.0209 100.515 53.0383C100.048 53.6046 99.4597 54.0599 98.7943 54.3711C98.1289 54.6824 97.4026 54.8418 96.6681 54.8379C94.5309 54.8351 93.3845 53.5761 93.3845 51.4159L93.3787 51.4188ZM100.758 48.7193C100.777 48.7211 100.796 48.7189 100.815 48.713C100.833 48.7071 100.85 48.6975 100.865 48.6849C100.88 48.6722 100.892 48.6568 100.9 48.6394C100.909 48.622 100.914 48.6031 100.915 48.5837C100.999 48.1308 101.045 47.6715 101.05 47.2109C101.05 45.2757 100.128 44.2864 98.4403 44.2864C96.9334 44.2864 95.7004 45.0968 94.9534 46.6254C94.6699 47.2517 94.4585 47.9082 94.3233 48.5823C94.3002 48.6717 94.3463 48.7178 94.4357 48.7178L100.758 48.7193ZM103.209 54.613C103.181 54.6136 103.154 54.6077 103.129 54.5959C103.103 54.5841 103.081 54.5667 103.064 54.5449C103.046 54.5232 103.034 54.4977 103.028 54.4705C103.022 54.4433 103.022 54.4151 103.029 54.388L103.299 52.858C103.322 52.7769 103.36 52.7006 103.411 52.633L109.828 45.8871V45.8424H105.036C105.008 45.8449 104.979 45.8404 104.953 45.8292C104.927 45.818 104.904 45.8005 104.886 45.7782C104.868 45.756 104.856 45.7296 104.851 45.7016C104.846 45.6735 104.847 45.6446 104.856 45.6174L105.144 43.998C105.15 43.936 105.178 43.8783 105.224 43.8366C105.27 43.7948 105.33 43.7721 105.393 43.773H112.911C112.94 43.7701 112.969 43.7744 112.995 43.7855C113.022 43.7965 113.045 43.8141 113.063 43.8364C113.081 43.8588 113.093 43.8853 113.098 43.9135C113.103 43.9418 113.101 43.9708 113.092 43.998L112.803 45.6174C112.789 45.7089 112.75 45.7948 112.691 45.8655L106.364 52.473V52.5206H111.358C111.387 52.518 111.415 52.5225 111.442 52.5337C111.468 52.5449 111.491 52.5624 111.509 52.5847C111.527 52.607 111.539 52.6333 111.544 52.6614C111.549 52.6894 111.547 52.7183 111.539 52.7455L111.269 54.388C111.264 54.45 111.235 54.5077 111.189 54.5494C111.143 54.5912 111.083 54.6139 111.021 54.613H103.209ZM114.188 50.9242C114.188 49.6422 114.476 47.6392 115.064 46.4538C115.964 44.6094 117.494 43.5293 119.856 43.5293C122.019 43.5293 123.658 44.856 123.658 47.332C123.658 47.9175 123.59 48.5693 123.369 49.7388C123.359 49.8026 123.326 49.8606 123.277 49.9019C123.227 49.9433 123.164 49.9653 123.1 49.9638H116.668C116.649 49.962 116.629 49.9641 116.611 49.9701C116.592 49.976 116.575 49.9855 116.561 49.9982C116.546 50.0108 116.534 50.0263 116.525 50.0437C116.517 50.0611 116.512 50.08 116.511 50.0993C116.474 50.2463 116.459 50.3979 116.466 50.5493C116.466 52.1687 117.209 52.7542 118.558 52.7542C119.594 52.7542 120.606 52.2365 121.258 51.6294C121.279 51.6052 121.305 51.5859 121.334 51.5726C121.363 51.5593 121.395 51.5525 121.427 51.5525C121.459 51.5525 121.49 51.5593 121.519 51.5726C121.549 51.5859 121.574 51.6052 121.595 51.6294L122.563 52.6864C122.586 52.7114 122.603 52.7406 122.614 52.7724C122.625 52.8042 122.63 52.8379 122.628 52.8715C122.625 52.9051 122.617 52.9379 122.601 52.9681C122.586 52.9982 122.566 53.025 122.54 53.0469C121.365 54.2082 119.782 54.8627 118.13 54.8697C115.52 54.8581 114.192 53.3959 114.192 50.9213L114.188 50.9242ZM121.117 48.1569C121.158 48.1599 121.199 48.1478 121.232 48.1229C121.265 48.098 121.288 48.0619 121.297 48.0213C121.34 47.7988 121.362 47.573 121.365 47.3464C121.365 46.1092 120.713 45.5468 119.542 45.5468C119.057 45.5319 118.578 45.6609 118.165 45.9174C117.753 46.174 117.426 46.5468 117.225 46.9888C117.072 47.3196 116.959 47.6671 116.887 48.0242C116.864 48.1136 116.887 48.1598 116.978 48.1598L121.117 48.1569ZM125.323 54.613C125.294 54.6162 125.264 54.6124 125.237 54.6018C125.209 54.5913 125.184 54.5743 125.165 54.5523C125.145 54.5303 125.131 54.504 125.123 54.4754C125.116 54.4468 125.115 54.4169 125.121 54.388L126.966 43.9951C126.971 43.9331 126.999 43.8754 127.045 43.8337C127.091 43.7919 127.152 43.7692 127.214 43.7701H129.171C129.199 43.7672 129.228 43.7715 129.254 43.7826C129.281 43.7937 129.304 43.8112 129.322 43.8336C129.34 43.8559 129.352 43.8824 129.357 43.9107C129.362 43.9389 129.36 43.9679 129.351 43.9951L129.149 44.9627H129.172C129.51 44.5124 129.948 44.1475 130.452 43.8971C130.956 43.6467 131.512 43.5177 132.075 43.5207C132.952 43.5207 133.694 43.835 134.123 44.3974C134.161 44.441 134.181 44.4968 134.181 44.5546C134.181 44.6124 134.161 44.6682 134.123 44.7118L132.796 46.1063C132.683 46.2188 132.594 46.2418 132.482 46.151C132.076 45.815 131.566 45.6318 131.04 45.6333C129.645 45.6333 128.858 46.7134 128.542 48.49L127.506 54.3837C127.483 54.5192 127.417 54.6087 127.282 54.6087L125.323 54.613ZM134.009 51.0785C134.009 49.7518 134.414 47.5469 135.018 46.3312C135.986 44.3513 137.628 43.5192 139.81 43.5192C142.195 43.5192 143.658 44.9368 143.658 47.2989C143.658 48.6256 143.252 50.8305 142.648 52.0461C141.659 54.0261 140.038 54.8581 137.856 54.8581C135.474 54.8581 134.009 53.4406 134.009 51.0785ZM140.443 51.2588C140.876 50.382 141.231 48.4698 141.231 47.6536C141.231 46.3716 140.736 45.6347 139.476 45.6347C138.44 45.6347 137.699 46.1741 137.226 47.1417C136.793 47.9968 136.439 49.909 136.439 50.718C136.439 52 136.933 52.7369 138.194 52.7369C139.23 52.7426 139.973 52.2033 140.446 51.2588H140.443Z" fill="#AEAEAE"/>
<path d="M42.566 41.3462C42.5375 41.3491 42.5087 41.3448 42.4823 41.3337C42.4558 41.3226 42.4326 41.3051 42.4146 41.2827C42.3967 41.2604 42.3847 41.2339 42.3796 41.2056C42.3746 41.1774 42.3767 41.1484 42.3858 41.1212L42.7463 39.2535C42.7514 39.1915 42.7799 39.1338 42.8259 39.0921C42.872 39.0503 42.9322 39.0276 42.9944 39.0285H44.9515C44.9799 39.026 45.0085 39.0305 45.0347 39.0417C45.061 39.0529 45.0841 39.0704 45.1019 39.0927C45.1198 39.1149 45.1318 39.1413 45.137 39.1693C45.1422 39.1974 45.1404 39.2263 45.1317 39.2535L44.7928 41.1255C44.7877 41.1875 44.7592 41.2452 44.7132 41.2869C44.6671 41.3287 44.6069 41.3514 44.5447 41.3505L42.566 41.3462Z" fill="#AEAEAE"/>
<path d="M17.6987 36.4448C17.5505 36.2066 17.418 35.959 17.3021 35.7036C17.2881 35.6634 17.266 35.6264 17.2372 35.5949C17.2085 35.5634 17.1737 35.5381 17.1349 35.5205C17.0903 35.5116 17.0444 35.5121 17 35.5218C16.9556 35.5314 16.9136 35.5501 16.8767 35.5767C15.0641 36.576 13.5744 37.4297 12.1872 38.2618C10.2736 39.4155 7.77447 40.9599 5.40949 42.7538C3.84486 43.945 2.69554 45.0496 1.79569 46.2292C0.0882978 48.4687 -0.404887 50.9649 0.330563 53.6471C1.29674 57.1614 4.64087 59.574 8.34696 59.574C8.68434 59.5737 9.02141 59.5535 9.3564 59.5134L9.54099 59.4788C9.70538 59.4485 9.9289 59.4067 10.1481 59.3534C11.3604 59.0593 12.4901 58.4935 13.4517 57.6989C14.4134 56.9042 15.1818 55.9014 15.6991 54.7662C16.2163 53.631 16.4688 52.3931 16.4375 51.146C16.4062 49.8989 16.0919 48.6752 15.5183 47.5674C15.5045 47.5294 15.4828 47.4948 15.4548 47.4657C15.4267 47.4367 15.3928 47.4138 15.3554 47.3987C15.3165 47.3924 15.2767 47.3941 15.2385 47.4038C15.2003 47.4135 15.1645 47.4309 15.1333 47.4549C14.904 47.5991 14.6502 47.7347 14.3777 47.8717C14.3422 47.8854 14.3098 47.9059 14.2824 47.9321C14.2549 47.9584 14.2329 47.9898 14.2176 48.0245C14.2031 48.0984 14.2181 48.175 14.2594 48.238C14.8554 49.391 15.1097 50.6902 14.9924 51.9829C14.8752 53.2755 14.3912 54.5078 13.5975 55.5348C12.7295 56.6521 11.5347 57.471 10.1794 57.8774C8.82414 58.2837 7.37588 58.2574 6.03629 57.802C4.69671 57.3465 3.53247 56.4847 2.7057 55.3366C1.87893 54.1884 1.43078 52.8109 1.42364 51.3961C1.42173 49.8609 1.92888 48.3683 2.8657 47.1521C3.90893 45.7969 5.14773 44.6043 6.54151 43.6133C8.16238 42.4322 9.89429 41.3579 11.57 40.3196L11.7545 40.2057C13.511 39.1155 15.4131 38.0152 17.5733 36.8414C17.6627 36.7923 17.7261 36.7433 17.7463 36.6683C17.754 36.6298 17.7538 36.5901 17.7456 36.5517C17.7374 36.5132 17.7215 36.4769 17.6987 36.4448V36.4448Z" fill="#AEAEAE"/>
<path d="M17.0152 39.511C17.0018 39.4735 16.981 39.4391 16.9539 39.4099C16.9269 39.3807 16.8943 39.3572 16.858 39.3409C16.8178 39.3338 16.7766 39.3347 16.7367 39.3437C16.6969 39.3526 16.6592 39.3693 16.6258 39.3928C14.2522 40.7007 11.9204 42.0923 9.69673 43.53C9.39486 43.7223 9.09107 43.9146 8.78535 44.1069L8.17969 44.4933L8.39455 44.5135C8.90968 44.5555 9.42046 44.6399 9.92169 44.7659C9.96863 44.7791 10.0171 44.7859 10.0659 44.7861C10.1626 44.7841 10.2571 44.7567 10.3399 44.7068C11.2441 44.1891 12.154 43.6483 13.0337 43.1205C14.4483 42.2798 15.9106 41.4116 17.38 40.6185C17.4079 40.607 17.4331 40.59 17.4542 40.5684C17.4753 40.5468 17.4917 40.5212 17.5026 40.4931C17.509 40.4617 17.5088 40.4294 17.5021 40.3981C17.4954 40.3669 17.4823 40.3373 17.4637 40.3114C17.2993 40.0518 17.1507 39.7864 17.0152 39.511Z" fill="#AEAEAE"/>
<path d="M17.1662 44.0881C17.022 43.8314 16.8778 43.5675 16.7422 43.3007C16.729 43.2682 16.7094 43.2388 16.6847 43.214C16.6599 43.1892 16.6304 43.1697 16.598 43.1565C16.562 43.1497 16.5251 43.1504 16.4894 43.1583C16.4537 43.1662 16.42 43.1813 16.3903 43.2026C15.7398 43.5805 15.075 43.9569 14.4318 44.3218L12.0117 45.689L12.1055 45.7568C12.4408 45.9946 12.7549 46.261 13.0443 46.5529C13.0597 46.5704 13.0786 46.5845 13.0997 46.5944C13.1207 46.6044 13.1436 46.6099 13.1669 46.6106C13.2147 46.607 13.2608 46.5917 13.3011 46.5659L13.8404 46.2659C14.9346 45.6553 16.0297 45.0458 17.1258 44.4371C17.1518 44.4253 17.1752 44.4083 17.1945 44.3873C17.2138 44.3662 17.2287 44.3415 17.2383 44.3146C17.2438 44.285 17.2432 44.2547 17.2365 44.2254C17.2298 44.1961 17.2172 44.1686 17.1994 44.1444L17.1662 44.0881Z" fill="#AEAEAE"/>
</g>
<defs>
<clipPath id="clip0_2609_3057">
<rect width="143.664" height="24.0651" fill="white" transform="translate(0 35.5063)"/>
</clipPath>
</defs>
</svg>
