<svg width="144" height="96" viewBox="0 0 144 96" fill="none" xmlns="http://www.w3.org/2000/svg">
<path fill-rule="evenodd" clip-rule="evenodd" d="M9.78541 56.4699H3V39.6448H9.57769C12.6934 39.6448 14.6321 41.445 14.6321 44.2838C14.6321 46.084 13.5243 47.3996 12.3472 47.815C13.6628 48.3689 14.9091 49.6152 14.9091 51.7616C14.9091 54.8081 12.7627 56.4699 9.78541 56.4699ZM9.30074 41.9297H5.56184V46.7764H9.30074C10.9625 46.7764 12.0703 45.9456 12.0703 44.3531C12.0703 42.7606 10.9625 41.9297 9.30074 41.9297ZM9.57769 49.0613H5.56184V54.185H9.57769C11.3779 54.185 12.3472 53.0772 12.3472 51.6232C12.3472 50.0999 11.3779 49.0613 9.57769 49.0613Z" fill="#AEAEAE"/>
<path fill-rule="evenodd" clip-rule="evenodd" d="M27.1644 56.4699L23.6332 49.4075H20.4482V56.4699H17.8864V39.6448H24.3948C27.5798 39.6448 29.657 41.722 29.657 44.5608C29.657 46.9841 28.1337 48.5074 26.2643 49.0613L30.1416 56.4699H27.1644ZM24.1871 41.9297H20.4482V47.1919H24.1871C25.9181 47.1919 27.0951 46.2225 27.0951 44.5608C27.0951 42.9683 25.9181 41.9297 24.1871 41.9297Z" fill="#AEAEAE"/>
<path d="M32.565 39.6448H35.1268V56.4699H32.565V39.6448Z" fill="#AEAEAE"/>
<path fill-rule="evenodd" clip-rule="evenodd" d="M48.7669 54.7389C47.5206 56.0544 45.9281 56.6083 44.1279 56.6083C42.3969 56.6083 40.8737 55.9852 39.7658 54.8081C38.1041 53.1464 38.1041 51.277 38.1041 48.092C38.1041 44.8377 38.1041 42.9683 39.7658 41.3066C40.8737 40.1295 42.3277 39.5063 44.1279 39.5063C47.7283 39.5063 49.8055 41.8605 50.2902 44.7685H47.7283C47.3129 42.8991 46.0666 41.7912 44.1279 41.7912C43.1585 41.7912 42.2584 42.2067 41.7045 42.8298C40.8737 43.7299 40.666 44.6993 40.666 48.092C40.666 51.4847 40.8737 52.454 41.7045 53.3541C42.2584 53.9773 43.1585 54.3235 44.1279 54.3235C45.2357 54.3235 46.2743 53.908 46.8974 53.1464C47.5206 52.454 47.7283 51.6232 47.7283 50.5153V49.546H44.1279V47.3996H50.2902V49.9614C50.2902 52.1078 49.8747 53.5618 48.7669 54.7389Z" fill="#AEAEAE"/>
<path d="M62.6839 56.4699V49.1306H55.8293V56.4699H53.2674V39.6448H55.8293V46.8457H62.6839V39.6448H65.2458V56.4699H62.6839Z" fill="#AEAEAE"/>
<path d="M74.4545 41.9297V56.4699H71.9619V41.9297H67.3229V39.6448H79.0935V41.9297H74.4545Z" fill="#AEAEAE"/>
<path fill-rule="evenodd" clip-rule="evenodd" d="M85.8097 56.6083C83.3171 56.6083 81.4476 56.0544 79.8552 54.3927L81.5861 52.731C82.7632 53.9773 84.148 54.3235 85.8789 54.3235C88.0946 54.3235 89.3409 53.4234 89.3409 51.7616C89.3409 51 89.1332 50.4461 88.7177 50.0307C88.2331 49.6152 87.8176 49.4767 86.8483 49.269L84.8404 48.9921C83.4556 48.8536 82.417 48.3689 81.6554 47.6765C80.8245 46.8918 80.4091 45.8071 80.4091 44.4223C80.4091 41.5143 82.5555 39.5063 86.0867 39.5063C88.3023 39.5063 89.8256 40.0603 91.2796 41.445L89.6871 43.0375C88.6485 42.0682 87.4022 41.722 86.0174 41.722C84.0095 41.722 82.9017 42.8991 82.9017 44.3531C82.9017 44.9762 83.1094 45.5301 83.5248 45.9456C84.0095 46.2918 84.6326 46.5687 85.4635 46.7072L87.333 46.9841C88.9254 47.1919 89.8256 47.6073 90.5179 48.2304C91.418 49.0613 91.9027 50.2384 91.9027 51.6924C91.9027 54.8081 89.3409 56.6083 85.8097 56.6083Z" fill="#AEAEAE"/>
<path fill-rule="evenodd" clip-rule="evenodd" d="M100.627 49.8922H96.8187V56.4699H94.2568V39.6448H100.627C103.95 39.6448 106.027 41.7912 106.027 44.7685C106.027 47.6765 103.95 49.8922 100.627 49.8922ZM100.488 41.9297H96.8187V47.5381H100.488C102.289 47.5381 103.466 46.4995 103.466 44.7685C103.466 42.9683 102.289 41.9297 100.488 41.9297Z" fill="#AEAEAE"/>
<path fill-rule="evenodd" clip-rule="evenodd" d="M124.03 48.0227C124.03 52.731 120.291 56.4699 115.652 56.4699C110.943 56.4699 107.205 52.731 107.205 48.0227C107.205 43.3837 110.943 39.6448 115.652 39.6448C120.291 39.6448 124.03 43.3837 124.03 48.0227ZM109.628 48.0227C109.628 51.3462 112.328 54.0465 115.652 54.0465C118.975 54.0465 121.675 51.3462 121.675 48.0227C121.675 44.6993 118.975 41.9989 115.652 41.9989C112.328 41.9989 109.628 44.6993 109.628 48.0227Z" fill="#AEAEAE"/>
<path fill-rule="evenodd" clip-rule="evenodd" d="M124.03 48.0227C124.03 52.731 120.291 56.4699 115.652 56.4699C110.943 56.4699 107.205 52.731 107.205 48.0227C107.205 43.3837 110.943 39.6448 115.652 39.6448C120.291 39.6448 124.03 43.3837 124.03 48.0227ZM109.628 48.0227C109.628 51.3462 112.328 54.0465 115.652 54.0465C118.975 54.0465 121.675 51.3462 121.675 48.0227C121.675 44.6993 118.975 41.9989 115.652 41.9989C112.328 41.9989 109.628 44.6993 109.628 48.0227Z" fill="#AEAEAE"/>
<path d="M130.953 41.9989V56.5391H128.461V41.9989H123.822V39.7141H135.592V41.9989H130.953Z" fill="#AEAEAE"/>
<path fill-rule="evenodd" clip-rule="evenodd" d="M141.201 41.722C141.201 42.2759 141.016 42.7606 140.647 43.176C140.231 43.5453 139.747 43.7299 139.193 43.7299C138.639 43.7299 138.154 43.5453 137.739 43.176C137.37 42.7606 137.185 42.2759 137.185 41.722C137.185 41.1681 137.37 40.7065 137.739 40.3372C138.154 39.9218 138.639 39.7141 139.193 39.7141C139.747 39.7141 140.231 39.9218 140.647 40.3372C141.016 40.7065 141.201 41.1681 141.201 41.722ZM139.193 39.991C138.731 39.991 138.316 40.1526 137.947 40.4757C137.623 40.845 137.462 41.2604 137.462 41.722C137.462 42.2297 137.623 42.6452 137.947 42.9683C138.316 43.2914 138.731 43.453 139.193 43.453C139.654 43.453 140.07 43.2914 140.439 42.9683C140.762 42.6452 140.924 42.2297 140.924 41.722C140.924 41.2604 140.762 40.845 140.439 40.4757C140.07 40.1526 139.654 39.991 139.193 39.991ZM139.124 40.6142C139.401 40.6142 139.608 40.6372 139.747 40.6834C139.978 40.7757 140.093 40.9604 140.093 41.2373C140.093 41.4681 140.024 41.6297 139.885 41.722C139.793 41.7682 139.678 41.7912 139.539 41.7912C139.724 41.8374 139.862 41.9066 139.954 41.9989C140.047 42.1374 140.093 42.2528 140.093 42.3451V42.5529C140.093 42.599 140.093 42.6452 140.093 42.6913C140.093 42.7375 140.093 42.7837 140.093 42.8298H139.747C139.747 42.8298 139.747 42.8067 139.747 42.7606V42.5529C139.747 42.2759 139.678 42.1143 139.539 42.0682C139.447 41.9759 139.285 41.9297 139.054 41.9297H138.777V42.8298H138.362V40.6142H139.124ZM139.678 41.3066C139.678 41.1219 139.631 41.0065 139.539 40.9604C139.447 40.9142 139.308 40.8911 139.124 40.8911H138.777V41.722H139.124C139.262 41.722 139.378 41.6989 139.47 41.6528C139.608 41.6066 139.678 41.4912 139.678 41.3066Z" fill="#AEAEAE"/>
</svg>
