<svg width="144" height="96" viewBox="0 0 144 96" fill="none" xmlns="http://www.w3.org/2000/svg">
<path d="M4.83279 36.5063C4.88173 40.6466 8.25324 43.9879 12.4051 43.9879C16.557 43.9879 19.9285 40.6466 19.9775 36.5063H16.6924C16.6438 38.8325 14.743 40.7033 12.4051 40.7033C10.0673 40.7033 8.16644 38.8325 8.11783 36.5063H4.83279Z" fill="#AEAEAE"/>
<path d="M23.8103 40.3382C19.6699 40.387 16.3284 43.7586 16.3284 47.9106C16.3284 52.0626 19.6699 55.4342 23.8103 55.4829V52.1979C21.484 52.1495 19.6131 50.2485 19.6131 47.9106C19.6131 45.5726 21.484 43.6717 23.8103 43.6233V40.3382Z" fill="#AEAEAE"/>
<path d="M1 55.4831C5.14046 55.4343 8.48189 52.0628 8.48189 47.9107C8.48189 43.7587 5.14046 40.3871 1 40.3384L1 43.6234C3.32633 43.6719 5.19727 45.5728 5.19727 47.9107C5.19727 50.2487 3.32633 52.1496 1 52.1981L1 55.4831Z" fill="#AEAEAE"/>
<path d="M19.9774 59.3162C19.9285 55.1759 16.557 51.8347 12.4051 51.8347C8.25317 51.8347 4.88166 55.1759 4.83272 59.3162H8.11776C8.16638 56.99 10.0673 55.1193 12.4051 55.1193C14.7429 55.1193 16.6438 56.99 16.6924 59.3162H19.9774Z" fill="#AEAEAE"/>
<path d="M32.3125 51.8867V43.6829H36.8997C37.7701 43.6829 38.4557 43.8794 38.9564 44.2722C39.4571 44.6651 39.7075 45.2852 39.7075 46.1325C39.7075 46.6871 39.5688 47.157 39.2915 47.5422C39.0142 47.9196 38.6136 48.1892 38.0898 48.351L40.0194 51.8867H38.3787L36.5184 48.5128H33.8608V51.8867H32.3125ZM36.7726 45.0579H33.8608V47.1609H36.7726C37.6661 47.1609 38.1129 46.8181 38.1129 46.1325C38.1129 45.4161 37.6661 45.0579 36.7726 45.0579Z" fill="#AEAEAE"/>
<path d="M46.6702 52.0254C45.43 52.0254 44.4016 51.6248 43.5851 50.8237C42.7763 50.0149 42.3719 49.0019 42.3719 47.7848C42.3719 46.5523 42.784 45.5394 43.6082 44.746C44.4325 43.9448 45.4531 43.5443 46.6702 43.5443C47.9104 43.5443 48.9349 43.9487 49.7437 44.7575C50.5603 45.5586 50.9685 46.5677 50.9685 47.7848C50.9685 49.0173 50.5564 50.0341 49.7322 50.8352C48.9079 51.6287 47.8873 52.0254 46.6702 52.0254ZM46.6702 50.6157C47.4713 50.6157 48.1222 50.3461 48.6229 49.8069C49.1313 49.26 49.3855 48.5859 49.3855 47.7848C49.3855 46.976 49.1313 46.302 48.6229 45.7628C48.1145 45.2235 47.4636 44.9539 46.6702 44.9539C45.8691 44.9539 45.2182 45.2274 44.7175 45.7743C44.2168 46.3135 43.9664 46.9837 43.9664 47.7848C43.9664 48.5936 44.2168 49.2677 44.7175 49.8069C45.2259 50.3461 45.8768 50.6157 46.6702 50.6157Z" fill="#AEAEAE"/>
<path d="M57.6963 50.6041C58.405 50.6041 58.9519 50.3885 59.337 49.9571C59.7299 49.518 59.9263 48.948 59.9263 48.247V43.6829H61.4631V48.351C61.4631 49.491 61.1126 50.3923 60.4116 51.0548C59.7183 51.7172 58.8132 52.0485 57.6963 52.0485C56.5331 52.0485 55.6088 51.7172 54.9232 51.0548C54.2453 50.3846 53.9064 49.4833 53.9064 48.351V43.6829H55.4662V48.247C55.4662 48.9711 55.6627 49.545 56.0555 49.9686C56.4484 50.3923 56.9953 50.6041 57.6963 50.6041Z" fill="#AEAEAE"/>
<path d="M72.5301 43.6829V51.9214H71.3168L66.3368 45.6357V51.8867H64.8347V43.6829H66.6372L71.0395 49.31V43.6829H72.5301Z" fill="#AEAEAE"/>
<path d="M75.9538 51.8867V43.6829H79.2699C80.5949 43.6829 81.6579 44.0488 82.459 44.7806C83.2601 45.5047 83.6607 46.5061 83.6607 47.7848C83.6607 49.0866 83.2486 50.0957 82.4244 50.8121C81.6078 51.5285 80.5564 51.8867 79.2699 51.8867H75.9538ZM79.2468 45.0464H77.5021V50.5233H79.2468C80.1096 50.5233 80.7952 50.2768 81.3036 49.7838C81.8197 49.2908 82.0777 48.6245 82.0777 47.7848C82.0777 46.9144 81.8197 46.2403 81.3036 45.7628C80.7874 45.2852 80.1019 45.0464 79.2468 45.0464Z" fill="#AEAEAE"/>
<path d="M85.6571 45.0695V43.6829H93.7222V45.0695H90.4638V51.8867H88.9155V45.0695H85.6571Z" fill="#AEAEAE"/>
<path d="M101.873 51.8867L101.122 50.1997H96.9851L96.234 51.8867H94.6741L98.3601 43.6483H99.8275L103.525 51.8867H101.873ZM97.5744 48.8594H100.532L99.0534 45.5432L97.5744 48.8594Z" fill="#AEAEAE"/>
<path d="M106.106 51.8867V43.6829H110.497C111.298 43.6829 111.957 43.8601 112.473 44.2144C112.989 44.5688 113.247 45.1311 113.247 45.9014C113.247 46.5408 112.989 47.0184 112.473 47.3342C112.357 47.4112 112.203 47.4882 112.011 47.5653C112.45 47.6962 112.796 47.9427 113.051 48.3048C113.305 48.6668 113.432 49.0789 113.432 49.5411C113.432 50.3499 113.162 50.9431 112.623 51.3205C112.092 51.698 111.406 51.8867 110.566 51.8867H106.106ZM110.324 45.0002H107.632V47.0107H110.324C111.21 47.0107 111.653 46.6756 111.653 46.0054C111.653 45.3352 111.21 45.0002 110.324 45.0002ZM110.382 48.3163H107.632V50.5695H110.382C111.36 50.5695 111.849 50.192 111.849 49.4371C111.849 48.6899 111.36 48.3163 110.382 48.3163Z" fill="#AEAEAE"/>
<path d="M123.056 50.4886V51.8867H116.436V43.6829H117.984V50.4886H123.056Z" fill="#AEAEAE"/>
<path d="M125.761 51.8867V43.6829H132.404V45.0233H127.309V46.8951H130.348V48.247H127.309V50.5117H132.867V51.8867H125.761Z" fill="#AEAEAE"/>
<path d="M138.46 44.8499C138.275 44.8499 138.094 44.8653 137.917 44.8962C137.747 44.9193 137.566 44.9655 137.374 45.0348C137.189 45.0964 137.039 45.1966 136.923 45.3352C136.808 45.4739 136.75 45.6395 136.75 45.8321C136.75 46.3559 137.197 46.6833 138.09 46.8142C138.699 46.8759 139.18 46.9259 139.534 46.9644C141.468 47.1339 142.435 47.9735 142.435 49.4833C142.435 49.9455 142.331 50.3499 142.123 50.6966C141.915 51.0432 141.634 51.3128 141.279 51.5054C140.933 51.6903 140.563 51.8251 140.17 51.9098C139.785 51.9946 139.377 52.0369 138.945 52.0369C137.951 52.0369 137.093 51.8366 136.368 51.4361C135.644 51.0278 135.159 50.3846 134.913 49.5065H136.565C136.719 49.8531 136.958 50.1189 137.281 50.3037C137.674 50.581 138.229 50.7197 138.945 50.7197C139.145 50.7197 139.346 50.7043 139.546 50.6735C139.746 50.6427 139.95 50.5887 140.158 50.5117C140.366 50.4347 140.532 50.3191 140.655 50.1651C140.786 50.0033 140.852 49.8107 140.852 49.5873C140.852 49.1945 140.725 48.921 140.47 48.767C140.224 48.6052 139.877 48.4974 139.43 48.4434L137.975 48.2932C137.181 48.2239 136.515 47.9889 135.976 47.5884C135.444 47.1878 135.178 46.6178 135.178 45.8783C135.178 45.4546 135.278 45.0849 135.479 44.7691C135.679 44.4532 135.945 44.2106 136.276 44.0411C136.607 43.8639 136.954 43.7368 137.316 43.6598C137.686 43.5751 138.067 43.5327 138.46 43.5327C140.147 43.5327 141.295 44.0257 141.903 45.0117C142.073 45.289 142.184 45.5548 142.238 45.809H140.655C140.463 45.47 140.162 45.2274 139.754 45.081C139.353 44.927 138.922 44.8499 138.46 44.8499Z" fill="#AEAEAE"/>
</svg>
