<svg width="144" height="96" viewBox="0 0 144 96" fill="none" xmlns="http://www.w3.org/2000/svg">
<path d="M27.8301 45.3454C27.8301 46.0825 27.6949 46.6538 27.4247 47.0592C27.1544 47.4523 26.7981 47.741 26.3559 47.9253C25.9136 48.1095 25.4099 48.2201 24.8448 48.2569C24.2797 48.2815 23.7023 48.2938 23.1126 48.2938V63.6255H20.7539V31.7828H23.1126C24.292 31.7828 25.2011 31.881 25.8399 32.0776C26.4787 32.2742 26.9455 32.5199 27.2404 32.8147C27.5352 33.1095 27.7072 33.429 27.7564 33.7729C27.8055 34.1169 27.8301 34.4363 27.8301 34.7312V45.3454ZM25.4713 34.7312C25.4713 34.4363 25.4283 34.209 25.3424 34.0493C25.2686 33.8896 25.1397 33.7729 24.9554 33.6992C24.7711 33.6255 24.5254 33.5825 24.2183 33.5702C23.9234 33.5579 23.5549 33.5518 23.1126 33.5518V46.5248C23.4075 46.5248 23.6962 46.5186 23.9787 46.5063C24.2613 46.494 24.5131 46.4511 24.7342 46.3773C24.9554 46.3036 25.1335 46.1869 25.2686 46.0272C25.4038 45.8675 25.4713 45.6402 25.4713 45.3454V34.7312Z" fill="#AEAEAE"/>
<path d="M35.7318 31.7828V61.8564H38.0905V63.6255H33.3731V31.7828H35.7318Z" fill="#AEAEAE"/>
<path d="M50.7097 63.6255H48.3509L48.0561 55.9596H46.3055L45.9922 63.6255H43.6335L45.4025 31.7828H48.9406L50.7097 63.6255ZM47.7613 47.1144L47.1716 32.9621L46.5819 47.1144L46.3055 54.1906H48.0561L47.7613 47.1144Z" fill="#AEAEAE"/>
<path d="M63.3288 63.6255H60.9701L58.0217 40.0383V63.6255H56.2526V31.7828H58.6114L61.5598 55.37V31.7828H63.3288V63.6255Z" fill="#AEAEAE"/>
<path d="M72.073 41.8073L72.6443 53.6009L73.2155 41.8073L73.8236 31.7828H76.1824L73.8236 63.6255H71.4649L69.1062 31.7828H71.4649L72.073 41.8073Z" fill="#AEAEAE"/>
<path d="M88.4241 60.6771C88.4241 60.8245 88.4057 61.0948 88.3688 61.4879C88.332 61.8687 88.203 62.2619 87.9819 62.6673C87.7607 63.0727 87.4106 63.4289 86.9315 63.736C86.4524 64.0555 85.7706 64.2152 84.886 64.2152C84.0015 64.2152 83.3197 64.0555 82.8406 63.736C82.3615 63.4289 82.0113 63.0727 81.7902 62.6673C81.5691 62.2619 81.4401 61.8687 81.4032 61.4879C81.3664 61.0948 81.348 60.8245 81.348 60.6771V34.7312C81.348 34.6329 81.3541 34.4855 81.3664 34.2889C81.3787 34.0923 81.4155 33.8774 81.477 33.6439C81.5384 33.3982 81.6428 33.1525 81.7902 32.9068C81.9376 32.6489 82.1403 32.4154 82.3983 32.2066C82.6563 31.9977 82.988 31.8319 83.3934 31.7091C83.7988 31.5739 84.2964 31.5063 84.886 31.5063C85.4757 31.5063 85.9733 31.5739 86.3787 31.7091C86.7841 31.8319 87.1158 31.9977 87.3737 32.2066C87.6317 32.4154 87.8344 32.6489 87.9819 32.9068C88.1293 33.1525 88.2337 33.3982 88.2951 33.6439C88.3566 33.8774 88.3934 34.0923 88.4057 34.2889C88.418 34.4855 88.4241 34.6329 88.4241 34.7312V60.6771ZM83.7067 60.6771C83.7067 60.8245 83.7128 61.0026 83.7251 61.2115C83.7374 61.408 83.7804 61.5985 83.8541 61.7827C83.9278 61.967 84.0445 62.1267 84.2042 62.2618C84.3639 62.3847 84.5912 62.4461 84.886 62.4461C85.1809 62.4461 85.4081 62.3847 85.5679 62.2618C85.7276 62.1267 85.8443 61.967 85.918 61.7827C85.9917 61.5985 86.0347 61.408 86.047 61.2115C86.0593 61.0026 86.0654 60.8245 86.0654 60.6771V34.7312C86.0654 34.5837 86.0593 34.424 86.047 34.252C86.0347 34.0801 85.9917 33.9265 85.918 33.7914C85.8443 33.6439 85.7276 33.5211 85.5679 33.4228C85.4081 33.3245 85.1809 33.2754 84.886 33.2754C84.5912 33.2754 84.3639 33.3245 84.2042 33.4228C84.0445 33.5211 83.9278 33.6439 83.8541 33.7914C83.7804 33.9265 83.7374 34.0801 83.7251 34.252C83.7128 34.424 83.7067 34.5837 83.7067 34.7312V60.6771Z" fill="#AEAEAE"/>
<path d="M96.5381 40.0383L97.1278 48.2938L97.7175 40.0383L98.3072 31.7828H100.666L98.3072 52.4216V63.6255H95.9484V52.4216L93.5897 31.7828H95.9484L96.5381 40.0383Z" fill="#AEAEAE"/>
<path d="M111.941 63.6255H109.582L109.287 55.9596H107.536L107.223 63.6255H104.864L106.633 31.7828H110.172L111.941 63.6255ZM108.992 47.1144L108.402 32.9621L107.813 47.1144L107.536 54.1906H109.287L108.992 47.1144Z" fill="#AEAEAE"/>
<path d="M124.56 44.7557H122.201V34.7312C122.201 34.5837 122.195 34.424 122.183 34.252C122.17 34.0801 122.127 33.9265 122.054 33.7914C121.98 33.6439 121.863 33.5211 121.703 33.4228C121.544 33.3245 121.316 33.2754 121.022 33.2754C120.727 33.2754 120.5 33.3245 120.34 33.4228C120.18 33.5211 120.063 33.6439 119.99 33.7914C119.916 33.9265 119.873 34.0801 119.861 34.252C119.848 34.424 119.842 34.5837 119.842 34.7312V60.6771C119.842 60.8245 119.848 61.0026 119.861 61.2115C119.873 61.408 119.916 61.5985 119.99 61.7827C120.063 61.967 120.18 62.1267 120.34 62.2618C120.5 62.3847 120.727 62.4461 121.022 62.4461C121.316 62.4461 121.544 62.3847 121.703 62.2618C121.863 62.1267 121.98 61.967 122.054 61.7827C122.127 61.5985 122.17 61.408 122.183 61.2115C122.195 61.0026 122.201 60.8245 122.201 60.6771V48.8835H121.611V47.1144H124.56V60.6771C124.56 60.8245 124.541 61.0948 124.504 61.4879C124.468 61.8687 124.339 62.2619 124.117 62.6673C123.896 63.0727 123.546 63.4289 123.067 63.736C122.588 64.0555 121.906 64.2152 121.022 64.2152C120.137 64.2152 119.455 64.0555 118.976 63.736C118.497 63.4289 118.147 63.0727 117.926 62.6673C117.705 62.2619 117.576 61.8687 117.539 61.4879C117.502 61.0948 117.484 60.8245 117.484 60.6771V34.7312C117.484 34.6329 117.49 34.4855 117.502 34.2889C117.514 34.0923 117.551 33.8774 117.613 33.6439C117.674 33.3982 117.778 33.1525 117.926 32.9068C118.073 32.6489 118.276 32.4154 118.534 32.2066C118.792 31.9977 119.124 31.8319 119.529 31.7091C119.934 31.5739 120.432 31.5063 121.022 31.5063C121.611 31.5063 122.109 31.5739 122.514 31.7091C122.92 31.8319 123.251 31.9977 123.509 32.2066C123.767 32.4154 123.97 32.6489 124.117 32.9068C124.265 33.1525 124.369 33.3982 124.431 33.6439C124.492 33.8774 124.529 34.0923 124.541 34.2889C124.554 34.4855 124.56 34.6329 124.56 34.7312V44.7557Z" fill="#AEAEAE"/>
<path d="M136 33.5518H133.051V45.9351H135.41V47.7041H133.051V61.8564H136V63.6255H130.692V31.7828H136V33.5518Z" fill="#AEAEAE"/>
<path fill-rule="evenodd" clip-rule="evenodd" d="M17.0394 33.0723L10.8881 39.1256L7.40234 35.6398L8.59596 34.4461L10.8977 36.7479L15.8554 31.8691L17.0394 33.0723Z" fill="#AEAEAE"/>
<path fill-rule="evenodd" clip-rule="evenodd" d="M17.0394 45.2903L10.8881 51.3436L7.40234 47.8578L8.59596 46.6642L10.8977 48.9659L15.8554 44.0872L17.0394 45.2903Z" fill="#AEAEAE"/>
<path fill-rule="evenodd" clip-rule="evenodd" d="M17.0394 57.5086L10.8881 63.5618L7.40234 60.076L8.59596 58.8824L10.8977 61.1841L15.8554 56.3054L17.0394 57.5086Z" fill="#AEAEAE"/>
</svg>
