<svg width="24" height="24" viewBox="0 0 24 24" fill="none" xmlns="http://www.w3.org/2000/svg">
<path fill-rule="evenodd" clip-rule="evenodd" d="M12 2.95589L12.7255 6.16769C13.0164 7.45574 14.4945 8.06798 15.6111 7.36293L18.3951 5.60485L16.6371 8.38894C15.932 9.50546 16.5443 10.9836 17.8323 11.2745L21.0441 12L17.8323 12.7255C16.5443 13.0164 15.932 14.4945 16.6371 15.6111L18.3951 18.3951L15.6111 16.6371C14.4945 15.932 13.0164 16.5443 12.7255 17.8323L12 21.0441L11.2745 17.8323C10.9836 16.5443 9.50546 15.932 8.38894 16.6371L5.60485 18.3951L7.36293 15.6111C8.06799 14.4945 7.45574 13.0164 6.16769 12.7255L2.95589 12L6.16769 11.2745C7.45574 10.9836 8.06799 9.50546 7.36293 8.38894L5.60485 5.60485L8.38894 7.36293C9.50546 8.06799 10.9836 7.45574 11.2745 6.16769L12 2.95589ZM11.0676 2.74528C11.2921 1.75157 12.7079 1.75157 12.9324 2.74528L13.6579 5.95708C13.8034 6.6011 14.5424 6.90722 15.1007 6.5547L17.8848 4.79662C18.7461 4.25268 19.7473 5.25386 19.2034 6.11523L17.4453 8.89932C17.0928 9.45758 17.3989 10.1966 18.0429 10.3421L21.2547 11.0676C22.2484 11.2921 22.2484 12.7079 21.2547 12.9324L18.0429 13.6579C17.3989 13.8034 17.0928 14.5424 17.4453 15.1007L19.2034 17.8848C19.7473 18.7461 18.7461 19.7473 17.8848 19.2034L15.1007 17.4453C14.5424 17.0928 13.8034 17.3989 13.6579 18.0429L12.9324 21.2547C12.7079 22.2484 11.2921 22.2484 11.0676 21.2547L10.3421 18.0429C10.1966 17.3989 9.45758 17.0928 8.89932 17.4453L6.11523 19.2034C5.25386 19.7473 4.25268 18.7461 4.79662 17.8848L6.5547 15.1007C6.90722 14.5424 6.6011 13.8034 5.95708 13.6579L2.74528 12.9324C1.75157 12.7079 1.75157 11.2921 2.74528 11.0676L5.95708 10.3421C6.6011 10.1966 6.90722 9.45758 6.5547 8.89932L4.79662 6.11523C4.25268 5.25386 5.25386 4.25268 6.11523 4.79662L8.89932 6.5547C9.45758 6.90722 10.1966 6.6011 10.3421 5.95708L11.0676 2.74528ZM12.0004 13.3129C12.7256 13.3129 13.3134 12.7251 13.3134 11.9999C13.3134 11.2748 12.7256 10.687 12.0004 10.687C11.2753 10.687 10.6875 11.2748 10.6875 11.9999C10.6875 12.7251 11.2753 13.3129 12.0004 13.3129Z" fill="#9E9E9E"/>
</svg>
