<svg width="24" height="24" viewBox="0 0 24 24" fill="none" xmlns="http://www.w3.org/2000/svg">
<path fill-rule="evenodd" clip-rule="evenodd" d="M12.0001 3.05035L12.3742 6.57746C12.5384 8.1248 14.2692 8.96286 15.5848 8.13205L16.3534 7.64672L15.8681 8.41528C15.0373 9.73095 15.8753 11.4617 17.4227 11.6259L20.9498 12.0001L17.4227 12.3742C15.8753 12.5384 15.0373 14.2692 15.8681 15.5848L16.3534 16.3534L15.5848 15.8681C14.2692 15.0373 12.5384 15.8753 12.3742 17.4227L12.0001 20.9498L11.6259 17.4227C11.4617 15.8753 9.73095 15.0373 8.41528 15.8681L7.64673 16.3534L8.13205 15.5848C8.96286 14.2692 8.12481 12.5384 6.57746 12.3742L3.05035 12.0001L6.57746 11.6259C8.1248 11.4617 8.96286 9.73095 8.13205 8.41528L7.64672 7.64673L8.41528 8.13205C9.73095 8.96286 11.4617 8.12481 11.6259 6.57746L12.0001 3.05035ZM10.9556 2.93955C11.0885 1.68682 12.9117 1.68681 13.0445 2.93954L13.4187 6.46665C13.5008 7.24033 14.3662 7.65935 15.024 7.24395L15.7926 6.75862C16.7391 6.16094 17.8392 7.26105 17.2415 8.20754L16.7562 8.9761C16.3408 9.63393 16.7598 10.4993 17.5335 10.5814L21.0606 10.9556C22.3133 11.0885 22.3133 12.9117 21.0606 13.0445L17.5335 13.4187C16.7598 13.5008 16.3408 14.3662 16.7562 15.024L17.2415 15.7926C17.8392 16.7391 16.7391 17.8392 15.7926 17.2415L15.024 16.7562C14.3662 16.3408 13.5008 16.7598 13.4187 17.5335L13.0445 21.0606C12.9117 22.3133 11.0885 22.3133 10.9556 21.0606L10.5814 17.5335C10.4993 16.7598 9.63393 16.3408 8.9761 16.7562L8.20754 17.2415C7.26105 17.8392 6.16094 16.7391 6.75862 15.7926L7.24395 15.024C7.65935 14.3662 7.24033 13.5008 6.46665 13.4187L2.93954 13.0445C1.68682 12.9117 1.68682 11.0885 2.93955 10.9556L6.46665 10.5814C7.24033 10.4993 7.65935 9.63393 7.24395 8.9761L6.75862 8.20754C6.16094 7.26105 7.26105 6.16094 8.20754 6.75862L8.97609 7.24395C9.63393 7.65935 10.4993 7.24033 10.5814 6.46665L10.9556 2.93955ZM12.0004 13.3129C12.7256 13.3129 13.3134 12.7251 13.3134 11.9999C13.3134 11.2748 12.7256 10.687 12.0004 10.687C11.2753 10.687 10.6875 11.2748 10.6875 11.9999C10.6875 12.7251 11.2753 13.3129 12.0004 13.3129Z" fill="#9E9E9E"/>
</svg>
